<mxfile host="65bd71144e">
    <diagram id="k7BZOjWWLIHCMaxcI3ko" name="Page-1">
        <mxGraphModel dx="2169" dy="899" grid="1" gridSize="10" guides="1" tooltips="1" connect="1" arrows="1" fold="1" page="1" pageScale="1" pageWidth="850" pageHeight="1100" math="0" shadow="0">
            <root>
                <mxCell id="0"/>
                <mxCell id="1" parent="0"/>
                <mxCell id="9" value="" style="group" vertex="1" connectable="0" parent="1">
                    <mxGeometry x="50" y="220" width="270" height="200" as="geometry"/>
                </mxCell>
                <mxCell id="2" value="" style="rounded=1;whiteSpace=wrap;html=1;sketch=1;curveFitting=1;jiggle=2;fillColor=none;" parent="9" vertex="1">
                    <mxGeometry width="270" height="200" as="geometry"/>
                </mxCell>
                <mxCell id="3" value="" style="shape=image;verticalLabelPosition=bottom;labelBackgroundColor=default;verticalAlign=top;aspect=fixed;imageAspect=0;image=data:image/png,iVBORw0KGgoAAAANSUhEUgAAAbwAAAEWCAYAAAAdNyJXAAAAAXNSR0IArs4c6QAAAARnQU1BAACxjwv8YQUAAAAJcEhZcwAADsMAAA7DAcdvqGQAACzESURBVHhe7d0HXNTlHwfwzx0gOHPiHqi5cG8FBdy4Ms3MNG3YcGel5sgcpZbjb2lp2tLM3KaZaYiAigtxm2JOVNwTRcHjfv/f8/BcGoKgCRz3+7xfL17c77nfwYHnffg+v2eYNB2IiIgcnFl9JiIicmgMPCIiMgQGHhERGQIDj4iIDIGBR0REhsDAIyIiQ+C0BCIieqr279+P7du3q6P0Ubx4cbRs2VIdJY2BR0RET9XkyZMxePBgdZQ+/P39sWbNGnWUNAYeERE9VbbA++abb+Dp6ala0463tzcDj4iI0p8t8A4cOJAugVewYEHUqlUrxcDjoBUiIjIEBh4RERkCA4+IiAyBgUdERIbAwCMiIkNg4BERkSEw8IiIyBAYeEREZAgMPCIiMgQGHhERGQIDj4iIDIGBR0REhsDAIyIiQ2DgERGRITDwiIjIEBh4RERkCAw8IiIyBAYeEREZAgOPiIgMgYFHRESGwMAjIiJDYOAREZEhMPCIiMgQGHhERGQIDDwiIjIEBh4RERkCA4+IiAyBgUdERIbAwCMiIkNg4BERkSEw8IiIyBAYeEREZAgMPCIiMgQGHhERGQIDj4iIDIGBR0REhsDAIyIiQ2DgERGRITDwiIjIEBh4RERkCAw8IiIyBAYeEREZAgOPiIgMgYFHRESGwMAjIiJDYOAREZEhMPCIiMgQGHhERGQIDDwichAW3Di9H5tWzsX/Rg3C5PXXVTtRAgYeEWVyFuye0wed/TzhUboaGnd4Fe9NWINzWbOp+4kSMPCIKJNzRo03v8aSoL1Y1Ks4nPQWc/6G8K2RJeFuIoWBR0SOwXoTJ09dhhUm5KjvBy8WeJQIA4+IHEPMJgSH3YVmyoKaPj7IrZqJbBh4ROQQYrcFYvM1K+BcEY39ivLNjR7C1wQROQALDgSH4lw84FTMG74VnFU70X0MPCLK/OJPY+OmCD32zMjT0Bd1XFU70QMYeESU+V0PQfDuOGimrKjr2whivEr8id/w2eAB6NunN3r3tn30xbCfD+rBSEbEwCOiTO/25iBsu63B5FwNPr755Bubk0c7DJ00Dq3j1mDON3Px56nc8HplCIa/5Al2eBoTA4+IMrk4hAdtwVWrHnLlGsO3hJiJlyD2r58xc70bOkwLQtjqCejesCRy3r+bDIaBR0SZmyUCQZtPwQInFGzog6pqvvntfbPwymsrUfv7jVg8oB7y8t3O8PgSIKJMzXouGCEHLfq7WU408KsPN8Qjau0IdOy3HW1+XInRTQryjY4kk6ZTt8nBWCwWnD9/Xh2REeTIkQO5cxtryvW1+R3h0WMFbro1w4yIn1Ft4VvovepZTFryGVoWYtRlhMmTJ2Pw4ME4cOAAPD09VWvaKViwIGrVqoU1a9aolmSIwCPHdPjwYfHHDD8M9NGvXz/1r28Ut7XVrxfR9FjTXCp00QZ1KqdlM5k0N6/PtMMWdQqlu0mTJsnXox54qiVtubu7a/7+/uooeazwHFhERAQqVKiArFmz4oMPPlCt5Ihu376NqVOnQg88TJ8+XbUaQNwWfFDVB1MiLDBlLYO2L3ggfMF6RJkq4IOQPZjUkBPyMgIrPEp3tgpvwoQJqoUc1a1btwxZ4Vn++kSr66JXt+YCWqf557X4u5u0QeWc9d+Fk1b01ZXaTXUepS97rfDYwU1EmZQVF4JDsN8CmLLXR5sWBWF2rY83etSEqykeUb/OxqKzVnUuEUdpElGmFY2NQWGI1Uxwqe4L37yizRkV3+gD/zxmaDfWY9a3B+6vqhJzCGH7rukxSUblsIEXfWg79omZqKkRH4Ww0CO4rQ6JKBOI3YagrdF6gOkh5+OH4mpCublQZwx42QPOWix2zxyHRefE+0AMdkweh8UXzfwr38Ay7t8+dgdm9X0FHdu2QsuWLR/zoxXaf7wOt9SX+hfrFWyd9jLaDwvAtXjVlhL9P0bkwrfQ/JWZCL+h2ojIrsXtDUboebE9QhF4+VZ6YLmwbPD5YCha5jXDemE53nt5MKaMeRXDIp/H+02eUeeQEWVc4LnWxTtf/YQl88aiQfQmBPz5J/7UPwKC/4Zz1ebo0LkLurzYGS90fA5tWvqhfrUyKGC+iH0hAfp5gTgWmwcPbeB/9yC+7+GHN7c2w9cLR8KnQCp/PGcPdPpiBaZ4rsDL/h8i4AI7PYjsWzwigzfiiJ535twN4Vfv36MxzSVfw5TxrVHIWcPFkC8wfl15jJzUGZyWZ3Bq8EoGuqMt755XzqMR8+Cz+8/WzsWru5JwLeR9raprXq3rkluqRbl7UJvVvphWsNn/tP13Vdtju65tHFZbK9porLbFAYZ3cZSmcRh1lOaj3dUit/6qLft9p3b2id8T6ElwlGZy4k/g0BHRD68zZUHt5s30Sk7ek6Tc9Z9DkzJVUauWm2rRWa9i3eAX8d62mvh0Tn9UTtXUm2gcPRSJWHWU4Bk0GvU13oiZhJd7L8JpFnpEmZgriuvvFx1b10IRTscjXYYHnvXSJmwS6+AJzpXRtEVxPHIxc80CrXAN1C5qO8uKC8vfxZszj8Gz3zj0LJWapdBvI/yz59B63DbEqZZ/uNXBoBEdELeoL97+5ihSexmQiIjsW4YH3s3g9dh+R1S/et6VbYoWz6awU5VrA4yYPwpetgt4N9Zh1JBfcCZbM7zzZuVU7HN1C7und0WHj3agrJ8PsqvWB+Vu/Ta6lrmBdR+9jx8jWeYRETmCDA68GISuD8VNmSlOKOrbAtUfGokSj8htoTj2T9+jGwoUyq2CLR6HZ4/H/JPxyOXXCe3cU/hx7h7F0kHN0XzQapw1VYefX/6kfwGudfCcfymYr/yO8RM3cLoC0VNy4cIFdevxPMnj7t69ixs3Hn/Y9cWLF9Wt1BPf6+bNm+qI7FXGBl7cLgRuvJjQbWjOB58W9ZG4q916fjE+HLIC50yq4UFxYfj+h22I0Zzh2dA7+f2u4k5h/Rf94V+1Jrp8sQ1X4vWK0vUGQif1Q+8+72J2WOKOzSyo5eeNfOZ4nFz4FZacZ5VH9F/9/PPPKFSo0GOv9fnSSy/Jx50+fVq1pE7FihVRrFgxdZQ6q1atkusyjh8/XrWkTvny5R/7e1H6y9DAsxwOQPDJhOt3plzeaO6TqIMx9hgWvD8Ku2q2R52HKj89x8KX47e/9cc7FUKVGslf+7NePoajtwvCq3sX1M8tfmQnFKnXBLWKF0XRoh4okvfhR7pVr4aKziZYrwdi2e+XuDoD0X8kwkRIcYHfREJCQuTnZcuWyc+pERkZiZMnT+LWrVvYsWOHak3Zr7/+Kj+vW7dOfk6Nc+fOye8XHR2N7du3q1ayRxkYePE4vT4If6nxKuZn7mD3l2Mw+uORGPZBf7zZrS3ql6+OnousaN6h3kOVn3j8iZBNOCYeby6CksWTv3pnLtIE7wzXv2738jDf1qs7c3406zceH40ciZEjBqJtmYcDz+xeFqXz6mWldhtbg0JxR7UT0eO7c+eODLoCBQogKCgI169fV/c82rZt2+SejtmyZcOiRYtUa8rmz5+vbgGLFy9Wtx4tLi4OK1eulM9xy5Ytqe7aXLp0qboFLFiwQN0ie5RxgWe9jMDAXYgT41VMzihSNCtO7gnHzrCdCN97EH/t3oHdkbdgKt4KzzdIakxxLA7si5DdoSbngvrjUx6deTU4BHvuaTBlrwdf76SGqzzAuTAKFxBf04qbB/dCFJJE9GREdSeqrc6dOyM2NjbV1ZotQNq3by+rJ1FJpcZPP/2EkiVLonLlyliyZImYb6zuSd7atWtx9epVvPDCC3Lz5NQGpQjifPnyoWbNmvIx8fEc222vMi7wooMRsO2O3LUSzp54dcYiLFuxCqvXrMWfARsQun8LxjfKjmKtOiDJLa2slxB59nZCV6NrNmRPMe9uY3PwDsRoJmSp6QvfPKo5OaY8yK1WIYqPikQkA4/oiYngcnNzw8cff4xcuXKlqhISwSECpHbt2njrrbdkaKUmhMLCwnD48GF0794dXbp0kSEpKsWUiOfk4uIin2P+/PnlNceUnDlzRlaDzz//PLp16yar0Q0bNqh7yd5kWODd3bIeoTcSrow5l/BBU89EXZJOxeBRsgxaPeeFB6aY32e9iZuie1JnyuIG15R+kridCAq9ogdkwkKzxVI63+QGtywJI2W0WzcQzYt4RE/k2rVrsnpq06YN3N3dZTgEBwcjKipKnZG0wMBAOTrz5Zdfho+Pjxy4kprAmzdvnvzco0cPGXhCSt2hovr87bff0Lx5czloRVSiIiRPnDihzkiarXoU30cMrjGbzezWtGMZtON5HELfrwLfqUdg0TO30Gu/4tj37ZBN3StZT2Ja989R7tuv0fpfdyiW/RhTrxZG77oHs3tPrDj1I9onmYwJLPtGo17tMdhl9UDfgEOY4ZfC0gvWC5jZqgT6BMTp2fccfrz8K3qk0Atqb2w7nk+YMAEffvihaiVHJHY8z5EjB/LmzYvChQur1rQjwkrsoj98+HDVkrw5c+bICk10Y3bs2FGumSsWgZ8yZQree+89ddbDXn31Vdk1Kaoo8TOJ3dy/+uorHD9+HB4eHuqsf7t37x6KFCmCMmXK/FPV1ahRQ16PE1/HZEpquHfCNb9XXnlFfhaV2ubNm9GoUSN88sknGDFihDrrYQ0aNMCxY8fkwBUnJyc0adIE4eHhMqhFRfsoYjdwPz8/5MmTB1myJDEqLxO7fPmy/B3s3r0b1atXV61pJ7U7nmdMhWeJwPrgEwn7VJlyoWFT73+HnWAuhlenj0eLpMJOMOVADhVAWlws4h5ZgVkRFbxRDpAx52kIvzophJ10F3fV3D9T1uyp6DIlynjOzs5ygEdaf4hBKFOnTpWfUyIqnmeeeUZWeELTpk3lG9SjKiExr23FihXw9fX9J8Bt1dqjqrw//vhDvtmK8LIRjxMBLUIsOeK5iJ+rQ4cO8tjLy0teA3zUczx16pQM1U6dOsmwE0RYivl4q1evlsePMnHiRPlcXV1dH/r9ZvYP0TVsl0SFl97iT0zVfFxNorLUTNlaaF+ffcRq0cm6pS168RlNjKM0ubXRvrummpN0VfvpeXGuScvR5lvtQmq+neUv7ZM6LvI5Opf/QNsSq9ozES4ebRzpvXj03Llz5ff77LPPVEvSTp8+rZnNZu21115TLQkGDBggHx8REaFa/k0PNXn/t99+q1o0zWq1anr1pukVm2p5mB4+ml4taXqQqBZN0ysw+bX69u2rWv5Nr/40/Q8F7aWXXlItCYYOHSoft2fPHtXyb7YFkjds2KBaNO3atWuaHmDa888/r1qSplep8nu2bdtWtTgWLh79DysuBwYiPGF4JlyqNUHTgk/yNNxQucqzcsUVLf4Szp17xMiomC0I2h6tJ6MLqvn4Il9qvp3lAs5fFmWjCW7lK6O8Y/U4EP0nYkBIpUqVoAfeI1cYWbhwIfSgktfhHmQ7Tq6CEu2i8hHVk43ojhTX1kQ32d9//61a7xPXCkVl1bp1azlq0qZ06dJy4IvoUhXPJTFRMYpRmck9x+QGr4jrguK6ori+aJM7d27ob7yya+1Rq7yIrlLxPUePHq1aKD1kQODdRsh6sTqKuO2M8n5NUfqJugudULaxF0qKxLOewQk1gT0pceHrsemi/kJ3Lgcfv5L6I+MQsWQ+Qh41FSjuDM6Kx+ghWaVhA3DbSKL7xOCMsWPHymH8omszOSK4RCiIa1sPqlevnrzO9ssvv6iW+8QcPdE1KYJDBMiDXnzxRfk5qW5N0SamPDzYnWkjHidGUNomsT9IPEdx7bNVq1aqJUHVqlXltAYR2npxoFoTiOuIO3fulIEsfhcPEkH5qKkXYiCMGFijV3fyuhOln/QPvFtBWBNyLWE6gTk/6jRMzYLPSctSrxPaeuiP1iu8v/adSlii7CEWHF4fApGHToW84FvFjCsbPsXUE+VQ59//l/4lbv8e/BWr6XlXA23blUl2FRcioxIDUMQbtgi8K1euqNb7xNQAUY3ZRi8m1rVrVxw5ckQGx4NEUIjAENfDEhODRIoXL57kqEsRIiK4RJAkllxQitVYtm7dKivHpK47ifASS5pt2rRJtSSwfR3bdcUHtWvXDjlz5ky2emV1l3HSOfDicXz+LKyy7ShuMsFy727C7Sfh2hBvvl4HWU0WHAgNxdWHeyv06u8iNm85JAfImLLEIGL+MPSeXxQD36378ECZf1gRtT0MJ+JNyOnXE90qMO6IEhNdjOLNWyypJQZgJGZ7w0/cVWhjC7TEXYbicWKuXlLBZevW3L9/vwxUGzFSUsyHEwGU1IhHMQBFVJUiTB+cGC4qTFG9JfccRSiL75k4vETgidGg3t7equU+MTpTTL0QK8qI0ZsPYnWXwfR/7HRxJfAzrad/da1gloTBKgkfJs0pdwWtaZde2shFhzWLOvexXFujveXhrJnzdNJ+vqLaHhQfqX3jnzthR3VTNq3s89O0HSntZm45qk1p7KaZXMpp/Tck2lk9E+GgFePIyB3P9Td9LWvWrFpUVJRqSVC2bFnt2WefVUdJq169ula4cGFNDyF5LL6GGOTSs2dPeZyU7du3y59Vr5BUi6aNGjVKtunVmmp5mF6JynMCAgJUi6ZVrlxZ0ytGOSAmOQ0bNtTy5cunxcXFyWO9KpVfZ+DAgfI4KWvXrpXniO/5oNdff12261WtanFM9jpoJUNGaT5d8dq5pa9oJZxzas1mnNSPknD9kBa4dIn2+/aTWmri6+724VpVF2etRM9lqRvRaacYeMaRkYEXEhIiv3efPn1Uy/1QEkH0KLY3xvXr18tjWyitW7dOHienVKlSWqVKldSRppUuXTrFcBUjRvVqTevVq5c83rdvn/xegwcPlsfJmTFjhjxv1apV8livauVxaGioPE6KxWLRChYsqNWuXVu1OP7IzAcx8NJS/EVtTd+KWo7y/bXA66rtSVlOaLPb5NPcyvfW1lzOxGmnY+AZR0YGntCiRQvNxcVFvqkLovoRz0e8Bh/lzJkzsqITlY8gAkIEhQiMRxkyZIj8+vv379c2bdokb48dO1bdmzwvLy9Zrd27d0/78MMP5eN2796t7k1a4mkLVapUSbEqFPr37y+/vqgIBaNUdwKnJaQlcwH4T16IcSWWY+Co9Ulfy0uVOBye1Rsjd9bEhMVT4Z+q+QtE9Omnn8pVTsaMGSOvkYlBJWIxZbFP3KMULVpUrmiyfPlyHDx4UA5gEQNMbBO5k2MbhCK+j7gmJq6zJTU6MzHxODHAJiAgQF6/E1MrUloJROyeIJYcEwtg79q1S14/FNcRxfd8FNt1QXH9j9fu7IPjvKO7VcWAhfPRIbwvXvxsK1K3+ciDLDi5uA+6THPC0N+W4d2qj14WiIjuE/PcxEANsTTXjz/+KKcAJDcQJDFxnpiKIKY52I5TIkJDTGsQUwbEepYiNEuVKqXuTZ4IKjFidMaMGXKlFDEoJTXEc4qJiZHBLiQ1OjOx+vXryzmAIvA4MtNOJBR6jiP+2nbti861tEb9lmrHUr06ynVt5/Qumler4drqU/dUW+bHLk3jyOguTUF0X4nuyZIlS8rPorsyNfSKS66OkiNHDnktLrWGDRsmf2bxMWfOHNWassaNG8vvJx4nVmFJjejoaC1btmzyOYrrh6k1YsQI+X30itUQ1+5s2KWZTsy56+qV3np82eAaIi6lsm8z9jiO5+iLpas/RZsSTzorkMjYPD09ZeUjKifRnSm6K1NDzJ0TUwb00JZz+1LLVmWJ7k9bF2dqiP3uxGav5cqVkxVYaoiFufWglM8xqekSybFNvRDdvKzuMp5jXqQy50b1l3vBv2gqfzzXGuj8aiMU4nQ7ov/ko48+khO4Rag8DtFlKBa+Tm03qFCtWjW5sLSYjC7m7aWWCEcxV+9xQlIQ4SWeY2q6M20qVqyIEiVKyB0beO0u43FUBhE9NeINXlRPQ4cOVS2p884778hBLyIYHofYBSHxKigpETs1iJVcxo0bp1pSR6wfKp5jUpPNH0VUvGKwC2U8Bh4RERkCA89OiaHPv//+u1z2iIiI/jsGnp2aNm2avDgurlOI9f8YfERE/w0Dz059+eWXGD9+PM6ePSsHAIhRbytXrlT3EhHR42Lg2ans2bNj2LBhcoUGMSFXbGPSoUMHOcFXdHUSEdHjYeDZOTHcWgz1FsEnPoudnkVXp1jFYd26deosIiJKCQMvkxA7P4tKTwSfqPzEuoNih2YxRDowMFCdRUREyWHgZTJiVQpxbU8E3+DBg+WO0s2aNYOvry9CQkLUWURElBgDL5PKnz8/Pv/8cxl8gwYNwo4dO2ToNW3aFKGhoeosIiKyYeBlcu7u7pg6dSqOHTuG/v37y7AT3ZwtW7bE3r171VlERGQSK0ir22kiMjJSDrYQW2tQ2rtz5w4OHTokKz/bP22vXr0wZ84ceZsc0+3bt+UCx/369cP06dNVK1HGmDx5srzkcuDAAbmoeFoTy8WJtUrXrFmjWpKW5oG3fft2tGvXjoGXjsQ/qdh7S6xpKIgXnHjhkeNi4JE9sdfAc7j98Izs3r172rx587RKlSqJP2Lk3l3i86hRo9QZ5KjsYT88Ihvuh0dpRqz8PmvWLLm/V48ePXDp0iW5M3NQUJC8P2vWrPIzEZGRMfAyMbEZpeg68PDwQO/evWU35hdffCG3Ixk+fDhy5sypziQiIgZeJnT16lW5e3LJkiVlP7kItu+++06O1BwwYAArOiKiJKT5oBV6es6dO4cpU6bgm2++kdWd2ElBVHJicWmz+eG/XSIiIlChQgVMmDABH374oWolR5RZBq2IxRFEl3t6uHHjhhy4VaBAAdWSdq5fv46qVauibt26qsXYOGiFntjx48e1t99+W3N1dZUXghs2bKitXr1a3Zu8w4cPy/P1wFMt5Kgyw6CVQ4cOyefoqB85c+ZUPynZ66AVVnh2TKyXKaqzRYsWyetzLVq0kBWdj4+POuPRWOEZR2ap8MSKQOlV4Yk1Z8+fP48ffvhBtaSdoUOHIjo6Wl4/J1Z49JgmTpyomUwm+dGxY0dt586d6p7UY4VnHJyW8DA/Pz+tRIkS6ihtNW7cWPPw8FBHxGkJ9FgKFSqEt99+W1Z5Ysdz8dcLERE9OQaenerZsydmzpyJihUrqhYDsd7FpSM7ELBkDiaN6IOXWzdA5eafYo9F3R8fhcDPX0fz6sWRv1B1dP/+EGx3CbcOLsKITrVRMl8eFPcagOWR8eoeIjIyBh7ZnfiTf+KH7xdg/pdjMGLCTPzyRxhul2+Iis56Fl4Kxjj/Rug5bz/OnjmPqxf2YuGYLxEcKx5pwYklveHbcgj+OHVdjpw7s2UmRswIQ8Iia0RkZAw8sjtOpdtjyMRpmD28FQqIV6g5Hxo3qwvXmN3435ujcbzLChw6EIpvXy0NJ/EAkwkmWHH2137oNt0FQzdEYNfmSWifRzxYQ0z0LTmMjoiMjYFHdsqCozv34FK8nmc5vdDM6zIWDhiFk68vwHdvVEVO6zUc/Oss4vWoy1a9Hjz/noH+s/Jg3LJp6FzODZYje/HXTav+4GyoVrcaXNVXJSLjYuCRfbJewqbNf+mxZ4JbbR+UWj4G6+pOwZT2RRJetHe2YOPOO9BMrqjdMBdmjgxHh5mfoKksCa24sGkz/rLoeZelJvz88olHEJHBMfDIPkVvRFBYLDQ4o1Lps/jhgD8+7VUOWdTdcTuDsfWaFSYXTxSJ+BnX35yK7h6yg1MXjc0bdyFOA5wr+aBJMb7MiYiBR3bq7rYN2CK6JM2uOLfrFtp+1AlF/nm1WhARtBmRooLLehYRWXpgpH+++y/m2HBs3H5Tr/OcUaJRUznYhYiIgUd2KA57AjfivJhNoJlR6bXBeM79gZeqNQobNh6UUxE0qyd6DG6TMLhFsURsxLYo/cHmfPBuWuufqpCIjI2BR/Yn/m8EBB2TgeZUpBMGdPdIGI1pcz0EIbvioOmtRTu/ix6lH7zXigsb1fW7nA3QxDu7aicio2Pgkd2xnlmPoAMy7lCyYw+0eCah3SYmdAO2Rmv63cXQrmsz/PvuaGzeJK7fmeBa0w++uVUzERkeA4/szpUNgdgZK0aclMFzLzZMNKUgDuEbQnHZqudd8TZ4wdtNtSuxO/+5fufp20Re97McWYivVkSqE4jIqBh4ZGeiERKwFbdF3nm0Qce6ia7AWY4gaNNJWPTqr1DTNqifKO8sR7dgu7h+51wS3r7lYL4ahI8GByBPzaLqDCIyKgYe2ZfYbVi/+ZpeoTmhRMv2qJMo76xRGxB80KK/cnPBq7kXsql2m7t79+CI6A01uSJm/9fo3W0asn4wBS+X/NdVQCIyIAYe2RXLviCEiuGZTkXQrG39h1ZIuR4SjF2xmp5ndeDXOKdqvc+lUCHkM5vEUE0s+243qo2dh1GNeCGPiBh4ZGec64zH/jgNmiUS37RM1F+py/vKcly3arDGrMM7hR9++bo2mYKQrQEICvsbx8Pmok+dRCNeiMiwuOO5A+OO58Zh2/G8Tp06aN26tWo1trlz5yImJgYXLlxQLWlH7Fd5/PhxDBw4ULUY25YtWxAQEID9+/ejcuXKqjXtpHbHcwaeA2PgGYct8OjfsmbNKkMvrRUtWhRRUVHqiGzCwsJQu3ZtdZR2GHjEwDMQW+D16NEDY8eOVa3G1rVrV5w5cwaRkWk/JaVx48Y4efIkNm3apFqMbfbs2Rg/fjwOHDgAT09P1Zp2GHjEwDMQW+D169cP06dPV63G1qRJExw7dgynTp1SLWnHx8cHp0+flt2aBEyePBmDBw+2u8DjoBUiIjIEBh4RERkCA4+IiAyBgUdERIbAwCMiIkNg4BERkSEw8IiI7FjcjShEhAdj5U8z8MngQZi1I07dQ4+LgUdEZJfisOOrXujauTV8GzRBhx79MeqLHbiZlzt/PCkGHhGRXcqCun2/xbK1azCikYtscSrrDZ8SDLwnxcAjIrJnluM4fsaq33CCe0MfVEu0RySlHgOPiMiOxR8NxqYTFsCUA/V8G+DhTbMotRh4RER2y4rzQcEQm/ybstSET2Pu7/hfMPCIiOzWDQRvCMddDXCu1Ah+RfiW/V/wt0dEZK9itmDDtpvQ4IRiXn4o76za6Ykw8IiIMpwV0YdXY0rvdmhQozrqNKgP7xemInTLBmy+aNXfqfPBu2kduKqz6ckw8IiIMpIlCuvHtkXlWr3wa46e+HHTLoRt3YJF7ffg4w9XI2G8Sn00aZRdPYCeFAOPiNJFVFQUypYti2eeeSZdPjZu3Cg3ZU3qvqf9ERoaiitXrqif9DHcPYhvXmyA1mN3o/r/QrB+0gson0O8LZtRyKsK7u47gnswwbVWUzTJk/AQenLc8dyBccdz48gMO57fvHkTQ4YMwaVLl1RL2jp//jzi4uJQokQJ1ZJ2xPeqUqUKZs2apVpSwXIE33dphndWnIdHr2XYNKsd3B8oQSx7PkadumOxx+KCep/uQ+iwCsgsU87tdcdziMAjx3T48GHxx4ymB55qIUd169Yt+W+tB55qIft2W9sxtoGWy2TSnMv20QKuq+YH3Fn9ulbYDA0uVbURO++p1sxh0qRJ8vWoB55qSVvu7u6av7+/OkoeuzSJiNJZbNhEvD1+G26a8qD18BFo8tD0OguO7NiNy1bAuVQTtKzC4ZlPAwOPiCg9WU9h7ugZ2HtXg1OprhjYpcjDb8TxkQgMOaTHnhMK+bZEHS4n9lQw8IiI0lFc2Ex88ec1WOGMZzt1h3c2dccD4o8sxKKtsdDMudGohReXE3tKGHhEROkmDuFLf8URi37TqRiatqqBh4u3aARN/w7hcRpM2RqgaWNOR3haGHhEROnFeg7bdpyAyDuTa2XUrP7wVPK4/V9h9DxxjgkuNXzRJB/fpp8W/iaJiNKLJQrnxMopOlOuAnBP3J0ZE47/TVyFq04m/cAZ5bwbo7iYixB3FEEhx2RQ0pNj4BERpRdzLuTMLsIM0K5H4uSlhPCT7v6Fb3t/itttWiDPnYTlxOo0rALn+NNYPnQcQl3c9Qik/4KBR0SUXpyfRVO/MnDRM0+LDcHEXqOxYP0G/PbDaHRt1BMbm03EkKLXcEEuB2JB5NZ5+KxXP6ytPQofNswpvwQ9OQYeEVG6yYL6w2ZimLc7XPRAO/vnOHRr0RzdJoShzEdL8f0r5eCW3x35RJem9Qo2zf0FVzp8ia+7lWF19xQw8IiI0pE5ry/GBB/F32HrsWLRMqzdfBDHDvyOT9qXlKHm7Pk+fvljHr5fuB579wfi8+cS2um/41qaDsy2lqZgMiVcNyDHZPtvbM9raZJx2NbSFNLjvUe8/v39/VNcS5OB58DEgrZcNNpYmjdvjm7duqkjooyxdu1aLFy4UB2lj2rVqmHQoEHqKGkMPCIiMgQGnh1gdyMR0eN73PjioBUiIjIEBh4RERkCA4+IiAyB1/CIiMgQWOEREZEhMPCIiMgQGHhERGQIDDwiIjIEBh4RERkCA4+IiAyBgUdERIbAwCMiIkNg4BERkSEw8IiIyBAYeEREZAgMPCIiMgQGHhERGQIDj4iIDIGBR0REhsDAIyIiQ2DgERGRITDwiIjIEBh4RERkCAw8IiIyBAYeEREZAgOPiIgMgYFHRESGwMAjIiJDYOAREZEhMPCIiMgQGHhERGQIDDwiIjIEBh4RERkCA4+IiAyBgUdERIbAwCMiIkNg4BERkSEw8IiIyBAYeEREZAgMPAcUGhqKoKAgdUR039GjR7Fs2TLcu3dPtRAZBwPPgaxZswaNGjWCt7c3Bg4cqFqJ7vvxxx/xwgsvoEyZMvjiiy8QExOj7iFyfAy8TM5qtWLx4sWoUaMG2rRpg927d+O9997DunXr1Bn0oMuXL+P69evqyHhGjRqFWbNmwdnZGe+++y5KlSqFTz/9FDdu3FBnEDkuk6ZTtykTEV1S8+fPx8SJE3HkyBHkyZMH/fv3x4ABA5AvXz51FiUmqt8CBQpgxYoVqsWY4uPj8csvv8jXz8GDB5ErVy706dMHgwYNgru7uzqLyLEw8DKZO3fu4Ntvv8XkyZMRGRmJQoUKyYrunXfeQc6cOdVZlJxy5crJwBPXOQkQ//1XrlyJ8ePHIywsDFmzZkWvXr0wePBgFC9eXJ1F5BjYpZlJ3Lx5ExMmTJBdUKKKM5vN+Oqrr3DixAn55sSwoydhMpnQoUMH7NixA3/++Sfq1auH6dOny2t8r7/+uuw9IHIUDDw7d+nSJYwYMQIlSpTA8OHDZXfl3Llz8ffff8suKDc3N3Um0X/TvHlzObp3y5YtaNmyJX744QdUrFgRL774Ivbs2aPOIsq8GHh26syZM3KkpajoRHdT2bJl5XBycb2lR48ectABUVpo0KABfvvtN+zdu1eG3fLly+WgqNatW7MrmDI1Bp6dEfOkxDUU0aX05Zdfonbt2li7di127tyJjh07yi4oovRQtWpVObDl8OHDeOONNxAYGCgH/TRu3Fi+JokyGw5asSNjx47Fxx9/LG+LCs7V1ZWV3FMWHR0t/2jIkSOHaqHUElNgYmNjERcXJ4/FNJjVq1fL20SZAQPPjog3j3bt2snbYrRc+fLl5bU7MUCFno6AgAD5h4SoUujxiDmMhw4dwpUrV+SxmNM3ZswYeZsoM2Dg2Rkxv+7777+Xk4FPnz4NDw8PjBw5ktftnhJOS3h8YhCLCDfRpSn+EBNTYIYOHYqCBQuqM4gyB5YOdsbFxQVvv/22vJY3Y8YM2X0krp+I0XLz5s2TE4aJ0oOYqtCqVSt4eXlh8+bNcmGDY8eOYerUqQw7ypQYeHYqS5Ys6Nu3rwy+adOm4datW+jZsyc8PT2xYMECeT2FKC2Eh4ejbdu2ck6emKbQu3dv+ToUg6gKFy6sziLKfBh4dk7MsxPTE44fPy5XV7l27Rq6deuGKlWqyDU02SNNT4uYhvDcc8/JkcFiEvqbb74p53t+/fXXKFasmDqLKPNi4GUS4trJ+++/L4NPrH944cIFdOnSBdWqVZPzpBh89KQOHDiATp06ybl2v//+O1577TVERERg9uzZctAUkaNg4GUy2bNnlwMGxJJin3zyiZygLt6satWqhVWrVqmziFImRlyKP5rEfDuxnqboORBz7sSgKTFYisjRMPAyKbF2plhy7OTJkxg9erSs/ER3VJ06deS+eETJEetjinCrXLkyli5dKkNPVHk//fSTXNGHyFEx8DI5sa2LmKwugk9MXxBdUWJCcOfOndUZRPeJDWArVaokV1ARK/fs27dP3q5QoYI6g8hxMfAcRO7cuTFu3DjZ1SkqP76BUVLy5s0rR/uKxaCXLFkiR/0SGQUnnpOhcOI5kXGxwiMiIkNg4JGhODk5yQ8iMh52aZKhiOH3YmpHs2bNVAsRGQUDj4iIDIFdmkREZAgMPCIiMgQGHhERGQIDj4iIDIGBR0REhsDAIyIiQ2DgERGRITDwiIjIEBh4ZBBW3DqxGYumDkHPVrVRxv0Z5KvaF6suWtX9urvHsGJYW1QpmhdFvEYiOFq1E5FDYOCRMcQfRdAfB2Gq5I8XGrvj9tWbuHrgR3y5+IwehTrLUfzQvSV6/7QDR89dw/ndW7D3Srx8KBE5Bi4tRsYTuwF9K7TA1yetyN15AU4ubIO9w9thTJaxWDK6PmLD12OntRpa1iuKLOohRJT5MfDIgKKxpGspvLTwKszl3sNv0+Ix8bvK+H5RL5TmRgpEDotdmmRA2dHQqzpcTED8iUXoMywS3Se/xrAjcnAMPDIgMwo2aIByzoB27yLydhyLV0sx7YgcHQOPDMnZswHqFlAvf5Ne6hGRw2PgkTHFaJB9mrAgYmcYbia0EpEDY+CR8VgvYtWQ4djsWghO0HAnPBQ77qr7iMhhMfDIYKw4t+wDfHzmDSya0QElnID4izuw+aBF3U9EjoqBR4ZijVyAQZPv4YNv+qFa/cao+4z+X8ASgdDNUQkT0EUgblyHcK6yQuRwGHjk8KJvqert7l78r+8PKPXZTHQrqZd22b3RuGYWmLQ47NkQiEt64sXsnoJB8y6gQPaEhxCR4+DEc3J4Lq4FUcW/HapE78OtLvPwy1sV1Aoq8Tg0viGqjdwBS5Zn8dw7zXBnVxzeWDgbnYvwb0EiR8PAI4dnFtMOnPKj8ccrsOIjb+RR7UL8sa/gX3sAAq5ryFLMHxNXLMag2izviBwRA48c3oali3C7ZCO0rFMkibUxrbh+aAMCD5tQ0ccPlfKysiNyVAw8IiIyBP45S0REhsDAIyIiQ2DgERGRITDwiIjIEBh4RERkCAw8IiIyBAYeEREZAgOPiIgMgYFHREQGAPwfj9MrgvdZhVwAAAAASUVORK5CYII=;" vertex="1" parent="9">
                    <mxGeometry x="20" y="28" width="226.79" height="142" as="geometry"/>
                </mxCell>
                <mxCell id="10" value="" style="group" vertex="1" connectable="0" parent="1">
                    <mxGeometry x="350" y="220" width="270" height="200" as="geometry"/>
                </mxCell>
                <mxCell id="4" value="" style="rounded=1;whiteSpace=wrap;html=1;sketch=1;curveFitting=1;jiggle=2;fillColor=none;" vertex="1" parent="10">
                    <mxGeometry width="270" height="200" as="geometry"/>
                </mxCell>
                <mxCell id="5" value="" style="shape=image;verticalLabelPosition=bottom;labelBackgroundColor=default;verticalAlign=top;aspect=fixed;imageAspect=0;image=data:image/png,iVBORw0KGgoAAAANSUhEUgAAARcAAAB8CAYAAABDl/T5AAAAAXNSR0IArs4c6QAAAARnQU1BAACxjwv8YQUAAAAJcEhZcwAADsMAAA7DAcdvqGQAAB/RSURBVHhe7d0HWBTXFgfw/zYQQQR7N4IRO2KnSbPHXpJYo0FjJ9EosceoMeSZRF+MGvsTW2LskZhYaIIKalBBxdiwFxRQRFnY3fNmZkcFXEt0d4Wd+/u++WTujOyyO3v2zi3nyogDhmEYI5OL/zIMwxgVCy4Mw5gECy4Mw5gECy4Mw5gECy4Mw5gECy4Mw5gECy4Mw5gECy4Mw5gECy4Mw5gECy4Mw5gECy4Mw5gECy4Mw5gECy4Mw5gECy4Mw5gECy4Mw5gEy+fyRrS4Hb8RodujkXAmHcVrNIRXt0Ho41kJVuIZDCNVLLi8tns49G0v9JgWgXRra2izHiGXeyllyvLwnbkN2ye1RAnxTIaRInZb9Joy90zBiE1OmHvkDh5kZuL+9Tj8b1QLlNLdQuSM4fjPYY14JsNIEwsur0OXim1rrmLgmoXo19ABCu5lLFahGT76cQu+61wKspxTCNt5Ciy8MFLGgsvr0F2FxnMshtZWigUieSV0bN8UShDU6kfQicUMI0UsuLwOpRsGD/OBnbibl0wm4zYbOLs4sUZdRtJYcHkOddpFJIRvwoplu3BBKxa+1EMcOZIEXbmO6NuptFjGMNLEgstjmqNYNLgT/N1dUbNiSZQo64zGAe9j5OqT3E3OK7q7E2vCHsF74pfoVZa9tIy0sU/AY9ytzpCf1mDtqu/Qs2o2NDo+pChQ06sVqir0p7xYFg7M/RbxXvOwfEwdFGiNYRjJYcHlCTmsbB1RqXYz1KkgRhNFebj7NHyFthMdUndNwqTj72P9yoGo8UrBiGEsGwsuBamP4WhSjnArJLNrDt+WxfTlL5CdtBhBSxwwc90ENDfUysswEsSCSwGa5AjEXOVbcGWwcvOBd0l9+fNoLqxD0JeX8dGSGfAplf/l1GjYSBdGulhwyUeHq+FROC3EBCXqtPJB5Re8Qrpr2zE+OB4d5s9B+/L5T1SfXIzpS06LewwjPWxuUT6pWNXFGYG/Z4IU1TFy9xks9LcWj+WnS92LLzr0xWZrDzQqEFigycCZY0oMi9qFINYAw0gUCy55ZW3FwBq9sCZVB3npPvg1ZT16GWpDyTmG/7QJwKTotOeMwpWjVPf/4fSmASjH6oaMREk3uGRdwdFD8Th+6hKySrqiQ88AVD08BnVa/4SLWhlsOyzB+Z1DUbBSYnS6LFxJiMb+w8lILd4cvft5olLByk7meUT9sRcn7ldD274d4GIrljNMYcYHFynRph+jdVN6kVs5B3LyG0iffzWLpnzsTXU7zKNNk11Jxb0kkFmR19xzpBH/j/Fp6UbMMpoyuCM1dy5FKpnQOcU9rj21XnAh3+NmxC+g911sSSYcV9K7n0WTWjzGMIWZhIKLlu4cmEe9axUnhX0DGrz8GN0XjxCl0+ZBzend6ir9h1jlSlP/zhWPmQL3XBL306FzaZTLhYqzP7UjBzkfYGRk5TWXzonRRZ28lLpWr0iuPu7kVEJOMi7oNZgcx4ILUyRIJLho6PKWYVSvuIxkxd0oODJdLH9MQ8nftNTXWrhN6RxEkeb8BN//lT4oJRceW2bfjVancWXp+2hck/rUf915LgAR5d5OpMiIE3TLdNUphjEqCTQ36nB9+2h07L8UJ7Md4Tc7FDN9HMRjjxFy1LnizwqU822LZuac0mzbCr5NrcHVmkBZxxGfcAM7gz9DTLslWNzXSZhKoCxbHz6+DVCOdT4xRYTFBxdN8iJ8PGQpkh7KULbzXKwMqo9nO5e1uHbtpr7nR+6AVu28UFwoNxN5GXi6i/ORtFexf95QBCd2x8JpHgbTOjBMUWDZwSX7CL4ZPBm77+ggs/XA+DkDUd3QN7/2IhJO3OZCDCCz80Q735cMyzU6JWp5NkN54bnlIvGvC2gfMgFNXz7zgGEKLQvuitbi9Pf+aDEhGpmkQJXBW5G4sjMK3hAJ0laj2zuDsT0TsGm9AGf/GvXCkbkmkR6K7tUHYVsmQekyHtEn5sK9CGeb2rp1K2bOnCnuvV2ffPIJRowYIe4xZiO0vFiitG00qLJC38WrrEcT457X+6Ol26HdyZHvrZFZkce3Z0zYBf0CmrMU4q7SN+ravkcr7ojlRVRiYiLZ2NjoX/+3vI0aNUp8Vow5WWjNRYdrSzuh7vBduM/9darGX+Jo3Aw0MJRkRXcdyzrVwbBd90GqhpgadxSz3MyfjUV3NwzDW3TH8vO5IEVlDN15DkvbF+37oo0bN+KDDz4Q9/IbMGAAPD09xb03p9Vqcf/+fURERGDfvn3C/mP8c/jll1/EPcZshBBjabTX6ef24sAzKKn2hIPPHRuSHT+FXK1kwjecosZoisgWD5iT9gZtGuhElWvWIDthQJ2KGk1PELqgi7qpU6cKr23BrUyZMpSSkiKeZVy3bt2iIUOGPHksf39/8QhjTpbZoJsdh9ijj4QrC3I7uDatbzjhk+4K1s7+GYk5/JlylPYKQDPD8xRNSIcrG4IwPr4dlmz5jHt8vkNag+SYGNyygOUDvvrqK3Tt2lXce+rOnTvo0qULsrKyxBLjKVeuHJYuXYrRo0cL+/xjMeZnkcFFl3oRl+6Jn0x5RVSvZii0aJESOgFzY8QgJLNBMx8P2AjHgBx1jviTaWkvrMToaSnov+I/eK9OK3gLy5UQchL2Iybv506TjewimB5GLpdjzZo1qFevnljy1IkTJzBo0CC+9iyWGA+/CkNISAjs7e2RmpoqljLmZJHBhTQaaJ9cr1poDdQA7h0Mwdjfa6FTI/FEZQN4eZUWXhDN+VCMCFyIk6b+MKuTsGD4D6DgUEzzsOOeQx14u1cE3yOtu38YMUfV+vN0qQgb2wPBe+7p94uYEiVKYPv27ShVqpRY8tSmTZswe/Zscc+4bG1t0a9fP6HmYooAxryEcHNkaTI3Ub/S+uH0fA+Q6+RD9Eg8RJRNKWFTyL9Rb1p9JpyCnJXCeYoqn9Cf2USaq1tpRMCHtPyssVs8tHQ7bj39+NMGir3KPZD2Fu0KakpNRv1Bt7XiKZyMDb3FeUYKchq1j7K4Z560sCu5B26lm3nOK4r27t1LCoXYg1dg27p1q3iWccXFxQm/PyMjQyxhzMVCe4vuIWxoQ3RdcVmowchUFeDeLxAdnXJw8WAYtp90xvTt6zGm9m70q9Qb69N13DnV4NfPB0i6i9b/XYsvPByNW63LDsMQpy5YcYN7rGIVUKuaHFnvBOOPHZ+iQZ52Ht3N5ehc6xP8kcnFRVVZ1G1UmvtrumLNXyHwdRRPKsIWLFiAoKAgce8pOzs7HDx4EPXr1xdLjEOtVsPGxgZnz56Fs7OzWPrqdDcPYdMfSbj/pu1fMhWc/PrD30lC8zeEEGOBtHciaYZ/JbJ6nM6A22Rye6rV6Qv6LVmsx+T+TdPdrJ6kMyjTNJBWHMvUHzO23Hia5lZMfCw5lfb+kqLuGqiKaO/Q1kHVSMk/b+68kg2H0i8XLWe2ok6no8DAwCfvSd6tRo0axN3CiGcaT2hoKKWmpop7/4427STt3rCcfpgWSD5VxGslzyZT2VGZSlWoSpXKVLlieSrraE82KgXJ8lx3wqasS1/ESWs+u4Uni3qAizG7EZl0C+RYFTXrN0fLeuXy9Rxln9uFVVuSYV3HD+91aITyJhziok09hrCdcbhl1xAdu7qj8vNG4KpTELV5Ly5Y1YFfR0+8Y9aJTqbH1yYCAgIQGxsrljzl7++PP//8EyqVSiwpLHS4tbg9qo3cA31TvwxWDT/FH7vnIuCZi0aDBzfPI+lwFHas+B4LdvyDhw4f4pfLG9BbSpPFhBDDMGZ28+ZNqlq1av5vd3EbM2aMeFZhoqXL8/2I+z7QP0+ZilrMOf3y0dyas/R9q+JCnp7zEkuXYZnjXJhCr3z58ti2bZvQHlIQ3y6zfPlyca+wyMGJE8lcnUSkrI2ANjWFnr0XUlRDs8ZVUN2tKSpLqLmFx4IL89Y0btwYq1atEvfyGzlyJGJiYsS9QiDnOKIPpurTcnAUVX3RtuGr3EMTtFpr1G/iaiDVh2VjwYV5q/h5P5MnTxb3nsrNzUXPnj1x+fJlseTt0p7fi4hzj+st8n+RUEwFl/4/YEoHc6fxePtYcGHeulmzZqFz587i3lO3b99Gt27d8PDhQ7HkbdHh+t5wJD6JLSXh3eZVE4rJUbF5azSR4Bozpv2Lddm4nRyLHWt34NgDseyx7Js48ddaLFq0DvsvGx5qr0s/hT3rFuPHJVtw9PbTWa6MZeGnCKxduxZ169YVS55KSEjAxx9//JZH2KYjfN8RqMWnICvugTZ+9vqdAnTXVmPwoOW4bAHzwt6Yvl3XSDSXKGLZNzRxRF/q5N2QqjtakVxWMOG1mlJ+n0R+FcVM+5CRsvIHtO5a3jEf6XR48SBqXObpOdYuo2gXn7iasVhnz54lR0dHfW9MgW3OnDniWW9B5hbqX1Yc8c1fi77z6KLB0dLp9OeI2tRk+jGLmNH+pow7zkV7DXE7D+D87ZPYGDIHOy7kcu+GHBUGb8P5lZ1RXHcXkTN7o/+iG6jbzh2yA+uw50IOSGaH7muuY0u/EtzvuITfRnbG8B0qeLetiRu7NiE+lfsakDuiz8YrWN+TrQj2r2iOY+X4BYh54yGmekq3IVg6xkPcM769e/eiffv2+fKx8PiJiPz8JEO3T6am3jcSLu0W45LwlFRoOusYDk2tm7+nSJeBhMWB6D7hHAbEvp2cQIWOEGKMLpN+ed9BHI3qQD3W8lWOTIqb40cu3hNo+0W+GqOmmHG1iHsLuPhTmvpveUR8HpYdIxvRu+1mUfgNflBAFm3uW4rvL+d+jz313pDF/3Lm33j0Ow0u//hb9803666h4i82nfnz5xt87BIlStDJkyfFs8xFTXET6+mvU36Tl6RmH02haVMn08Tgz+nTUUPpo94dqIWTg7C4nar+ZDrMqi0C04zQzYnBuAZ+mPePhrs/bYuFZ8PQJXYIui11wcKtk9CcH6Wou4FF7Z0wek82YO2H+f/sQpsdPdFnTweEbhiFhnxrmeYopjZxx9cnciFTtcScxBhMdJHYYIE3pf0H2+dtQMID47zNyto9MPXDhuKeafCXZGBgoMFu6po1ayIuLs7gDGuT0CZjjiefoZCvhXMVaLvKqO3kAO3DR1Dn5EKj1eBhRirSszTccSXqfhGDhJAWhvMHSQ0fXIxNk/wNtVTx74WMrNxD6NSpRdTdfxztyTv99/5G+lBcCEzV5EuKi5lOfr5TaP/TZRBJmzKffK31WeJU9SZRPPtGkIzs7Gxyd3cX3vu8m0qlovj4ePEs09NeXkABNvprkAstVPrDjXlW6hRln6P/9a5CCmVtGn9AWvOHXsQENRcdbi3rBOdhu5BFKjQIXokPT26AfPZmTGz0NCesOnwUarddhBStErVH/4BOyRFwWrARI4RkSXoZ63rinQFbcI8UqDb8T/yzuPVzByLpdLpC0GVpPvzcG2tryx6WdfPmTTRr1gxXr14VS4AlS5YI2fzNJW1NDzh9tJW7BrkdmR06LT+P7R+Xe6ab9eHGD1BlWhX8nvg9PFm1RU8IMUZ1n37rU1rfTqKoQu16dKReC5MLtJ7n0t/TxEXfFVXJr50ffbAypcA8jWzaNbQyF1a4c+Slqc9vz3xf5NO2bVvx20Uam5WVFR0+fFj86y3X+vXrn/zNw4cPF0vN5QFtHVhOfy1zm8zal+YZ7iaiO0vfo3qfRbN1vPMwfs1FvQ8jXdph8SUtZPJiKNP6a0SFjUOdvI3n2ouY518Hn0erAQV/zrc4EBaEmnmbUzRHMKWxB+Yk5nJfGO9h2fkdCHzBQKSwsDDhXlwq+Pwn/Fo8fJY3S5WWlibUXC5cuAAvLy8hqz8XVMWjZqCOwOjabbAwRd9zpWryFf4+NB31n+kI0uDo7H74zTsUIT5SG+T/fEYPLpr4SWjkGaJPEamshc/Cj2Oed4ElMlJXoYtzIH7P5B5aUQPDw05gcbv8c9F1KfPg7/I5onIAK++5OB3xOaSUZ8dotFcQuykcZx8Z521WVGuFAf5O4p7p8F3RHTt2xO7du1GlShUcOXJEmOxoTprDk+Hm+Q2ShGXElXAZH40Tc91ZY+2r4oOL8Wjo9JwWQpccH7eKt/qezhqYZv5gywDiKiHCOcXcQ+i0gXPS1nSnksLvUZHrNMtYZuOtKIJd0bzg4GDh8YoVK0ZcYBFLzUlDyd+0FK9lbuNu8T/582myVObljFtz0V3DwnbvYszeR9wNqgO6rEjG1sHlCzR+qREZVBetF1yAVmYDv/mnsDfonQLnZGPX0JrovPwatAon7vedwo++rLr5WnLi8P3AGdidbpxBdFbuwfh9RoC4Zxr8AmZ9+vQRfuZXDujfv7/ws1lx1/Ii7loezV/L3K68dB/8enE9er3uXejDKzh9ww61nB1fnqbBUgghxljurqZuJfXddnKH7rTGUMbC3ASa5iouW1rcnxZcMtBAlhtPk+rrz5GXG0jbHuiLtXfPULIwuI6xVAkJCU+WgR03bpxY+hakraHu4rXM17BLdF6RL5H6v5NFOwMrkUJVjYaGiRezBDy/hfQ1PIjag1i+HYWrh9j79UCH0vryvLRXwhF5mm+QkcG6RVd0qfLsU9BdjcGBf/Tn2Lb0gxc/4j/nNH4OHIIf/84QzmEsD78ECD8L+tGjR2jTpg2+/fZb8Yj5PYjegwPCtcyRqeDayhelXvvTokAJx5KwtnFAqeLSaTg0YnBR49DuaKTxtW9ZCbTq0hbPJqvX4W54BBJy+S8DJVzbtEVlA88g69BBHOfPgRL13N3hoL2OHZ8Nwdam32NuRwMRq0jR4nb8Bnw3ZQT69foQQyfMwerY62JeVunSaDRCbpdLly7ByclJuDVSKp/pljGTB9i3dTf4KW0CeTnUbVD5DW5nrNFq7gmkpSYgxLdor//9r4g1mDfH38rUE2937DrQ0huG6pCZtKlvGf24AWU9mmgwG7qGkmY21Y+BgYKqtB1JI9q7kvuY7XS1yN8RZdDBkNZUUaWgYnbFSSXTV7tlyvLkN+fgsyM/JWTs2LHCa2Fra0uJiYli6duRcWAaNbd9fEvEbTJb8pl7mt7GMuJFmdGCi+b8XPISFnSXkU3AArpsKLZk76UR1fWLYj1ehMyQtN/6UnmxN0nh6Ep9vo9+g/vdwuP+7lHUqOkntPZ4OhdCtfToRjz9b1QLKs39rTIrV5oq0fkN/NIfjz/ImzdvFkvNL3PfLOrmVZvKCNexGFjETSa3pSqN/alr/7kU9crzZ3Pp/rUzdCRiG63+7ywK2ZRcYKCoZTPBCF1jyKSzkZtp0x8H6Fyahbwd2tsUOqAr/XC6QADRXqNVXfmZ3ypym35ccl3ufDcz393Mf4CnTZsmlloI7XWK2/QzjW5pTzKZPXVbbfw1mQozI7a5GJMdavr0QM8O7nB2tJAGMN1VaDzHYmieuVMCeSV0bN8USu4LUq1+9CQBtBTwaSy7d++O7OxsdOnSBTNmzBCPWAh5RTTv2QNuZbh31boJ/Cxhycx/oZAGFwukdMPgYT5c2HwWnwhJJrOBs4uTZEZ/8gm4e/fujStXrqBOnTrCeBY+3aWpcF+kwmoC/IJsZvUgBhFxD6Gs74cAQ70XFowFl1elTsPFhHBsWrEMuy4YM5/vQxw5kgRduY7o26mo94S9unHjxiE6OholS5YU1i+ytzeck9ZY+PlJ3t7eyMzMFEvMQ314H2LT5HDyCcC7Epu+woLLc2lwdNFgdPJ3h2vNiihZoiycGwfg/ZGrcZJvITCWuzuxJuwRvCd+iV5lpfF2rFy5Ej/99JNQY+O7nGvVqiUeMZ2NGzcKCabKlCkjlpiDBqfC9+MqysM7oLH05iTpm14YQ7TqB5R27TTtDm72ZEF7Zd0vyHjriT+g2C8ak3Pv1XRBIt0Ihw4dEtJF8K9lSEiIWGpaGo2GqlevTh4eHmKJmWjO03feViR3fJ9+yRDLJITVXF5AbmULx0q10axOBXEAlQLl3X3Q0ChfQTqk7pqEScffx/qVA1FDAlVmPvlTjx49kJOTIwyYCw4OFo+Y1rJly4TBeS4uLmKJmWREI/qYBjYtW8OnxAMkJSQjWzwkBSy4vJQax44mIYf/rpXZoblvSxhjjGV20mIELXHAzHUT9DmFLRwfUPgVFK9fvw5XV1esWLFCuC0yNb4959NPPxV+rl27tvCvuagT/0bSQwVcfT1xb9M8/JVWVlK3Riy4vIwmGRExV8E34cqs3ODj/eJlObXX4xB75sXpNjUX1iHoy8v4aMkM+BSYsMIPg7dEQUFBOHDggNDmwX/gbW1Nt0QM3yMUHh4uzKbmu7r5wMYzd81FZlMcxeQaHFs0Aj9m98bogNKS+sCZJvu/BRGSVtX+HFFqgqrRdMQf/gqNnjPlRXd3D8a3/ggpnydhS3/D2el117Zj3Kfh8Jn3A7pXzX8vpD65GF9FemHOqAZiiWXg894OHz5c+JnPLOfm5ib8bEx8DmW+Jyg1NVXISJiVlSUeeSo5OdnMASYb1xMTkV62AepVkNCcIhELLi+RuqoLnAN/RyYpUH3kbpxZ6G8wSbgu/QC+6dkVXx5siHn/7MGYqs9+R+lS9+KLDn2x2doDjcoXOK7JwJljSgyL2oUgC2qAiY2NhZ+fnzCu5W3iJ0HyCdz5xOaMmfDBhXmeB7RlQFm+1VtMEp4pluenTtlOY5s7COepms6kJEM9P+oE+raVuMCbwU1OpbqH0i0LmEP12NWrV6lChQoG/lbzb7Vq1RKfFWMuz369SlYWrhzdh80rF+CHBaHYd46rVqsPIzwmTRiSL7NpDj9vfqW2PHTpOL5uLFq36IX58RnceUrUaOVveLCUVSMER90FFzuE0aLPblrc3TIAL8hBXqTwQ/r5niG+h6gwMHdjLsMadLkAkYHj66eid2MnNHz/a+w4lY6Ht6LwVdfemL9zD/ZfFZpyoXLzh3+Zxy+XDjfDJiGgZnU0GTAf+2/pV+Pjc7WcXxAA+2LFUKx4ZXy8Q0odj/n9+uuviI+PF/fePrN3QzPSbnPR3T2IH0cMwpQtN+E88Aes+W8gXMUcqRlbBqPdxAgknLuEXFLBdWocjsxy4+omPB3unYvD0UsPQZozWDEsCBsuaSF3bI/Z68ajOd/fKCuOqo1boJaDNOM3PykxJSVF3Hv7qlatiooVK4p7jFnwwUWKNJe30LB6xUkmK05uwZGULpY/9nRJWm5TOlNQpOFhudqLP5CPsOSsjIq3/5kM5shiGAmS5Neq7vp2jO7YH0tPZsPRbzZCZ/rAQTz2GOWo8bh/Q1HOF22bGR7+lB4VhQR+hJ1MiYY+vpDI9CCGeSnpfRQ0yVj08RAsTXoIWdnOmLsyCPUN9C1rr13DTSG5ihwOrdrBq0Bbrl4WYiMO4QFfv1HURCu/GtJZNoJhXkJiwSUbR74ZjMm770Ans4XH+DkYWN1QONDiYsIJ3Bbacu3g2c4XBsfl5vyNiAN3hd4kRXlP+LlKaXA3w7yYpIKL9vRCfD43DsIqspXfR/AndcUG2oLuIS7uFITFTYo1R9s2hvOsaM5GYn8Kf5YcJdz90VJ6gzAZ5rkkFFzSsfM/88R1lZSo3X84OhRsaBHpUsOwPToLJHRBt0GbCoZeJh1uRUTp18SWWaOpnw9Mm+6IYYoWyQQX3bXfsGTLdWECIlQN0atv4+fUWnS4uW0D9mXwNztcEPJv85wF8O8jKvIo1EKsqg9f34LL1jJGwy+Fej5d/94xRYZEPg9cLWPnVkSLK+gpnQPQ3uU5sw/VR7Fo4T7h1gmKKmgV8Jxbp+yDiDiUKfRVK2u0gl9N1pRrGg8RFtQSDeo0wog/np2MyBReEgku2YiLPYpHQmyRw861KeobbHvV4cra2fg5MUcIGvLSXghoZngB/JxjkYi9xX+XylHOyw+NWFuuiUhzKVRLII3gokvFxUv3hF4d/k+uWL2awaQ92pRQTJgbIwYhGWya+cDDRjjERRN1niVXtbgYGY1zQm9SCbTw84DQU809zqnEK5JfmtW4JLoUqgWQRnAhDTRaIWIItFp9mMnn3kGEjP0dtTo1EmotfHtLAy8vlOZfIc15hI4IxEKh9Zaju4V94ceh4U6U8evR+PAd1Tk4vWQ8vjuUw8a6GJ0S1lYSqWRbEGm8Y4rycHrHXvxjtUjZG4aEPHMK1Zf+wNQeI3G8+zfwy+XnEnGF3P9p6PYOFNpr2BY0DLs8ZmBMPbH15X4kIg6r9e0tdbzQqiJwc+d4jItvhxmBziy4GIUGmdf/wdHI7Qj9cTa+3XyGNegWNeI0AIuXsXMIVVOIawDLVFTBYxBNmT2TJgR2oLplqlHnHxMokx7R5r6O+pwr3DnV/AfRAP+m1HFOLKXlmTOUHTGaaiiE2ELyUu40eEx3cm/zJe0vOEGJeX0SXwrVEkhn4qL2DkXO8KdKeRcZl8nJvlYn+uK3ZC6s8HLp7+lu4jIiMlKWaUqBK45xQSe/3BNfU0vbx4GqGFVv9xXts6QsT4XGbVrRyY5kxfzov5fY61vUSC7lwoOLMdgdmYRb5IiqNeuject6KJe3dTf7HHat2oJk6zrwe68DGpU31BGtQ1riLuw4dAf2Lp4IaFXT8PQA5s082IoBTr3wa/UZSDg0DfXY/WaRwnLoMoWWOmI06rRZAqvPonDiOw/prVhYxLEmeKaQkvhSqBaABRemcNJeRnhUMrT2nmjtwca3FEUsuDCFk8SXQrUELLgwhZLUl0K1BCy4MIWS1JdCtQSst4gppKS9FKolYMGFYRiTYDVNhmFMggUXhmFMggUXhmFMggUXhmFMggUXhmFMggUXhmFMggUXhmFMggUXhmFMggUXhmFMggUXhmFMggUXhmFMggUXhmFMggUXhmFMggUXhmFMggUXhmFMAPg/j6kLtUOkEncAAAAASUVORK5CYII=;" vertex="1" parent="10">
                    <mxGeometry x="50" y="60.22" width="179" height="79.56" as="geometry"/>
                </mxCell>
                <mxCell id="11" value="" style="group" vertex="1" connectable="0" parent="1">
                    <mxGeometry x="670" y="220" width="270" height="200" as="geometry"/>
                </mxCell>
                <mxCell id="6" value="" style="rounded=1;whiteSpace=wrap;html=1;sketch=1;curveFitting=1;jiggle=2;fillColor=none;" vertex="1" parent="11">
                    <mxGeometry width="270" height="200" as="geometry"/>
                </mxCell>
                <mxCell id="8" value="" style="shape=image;verticalLabelPosition=bottom;labelBackgroundColor=default;verticalAlign=top;aspect=fixed;imageAspect=0;image=data:image/png,iVBORw0KGgoAAAANSUhEUgAAA7IAAAFgCAYAAACG6UX5AAAAAXNSR0IArs4c6QAAAARnQU1BAACxjwv8YQUAAAAJcEhZcwAADsMAAA7DAcdvqGQAAHjbSURBVHhe7d0HmBPV1wbwszQBQQEBUUAElV6lKh0UFKRIB0FpUqQqxUJRFPRDEKSqYJcqTRD+oqBILyJVQVCQ3pQO0smX9+aGTCaT3WSTTdm8v+eJzp1JsiGZSebMPffcOJudEBEREREREQVRoUKFZNeuXWq5bt26UrZsWbVsNnjwYL3kuxT6/0RERERERERRgYEsERERERERRRUGskRERERERBRVGMgSERERERFRVGEgS0RERERERFGFgSwRERERERFFFQayREREREREFFUYyBIREREREVFUYSBLREREREREUYWBLBEREREREUUVBrJEREREREQUVRjIEhERERERUVSJ2UB23759YrPZdIuIiIiIiIiiRbIOZK9fvy4HDhyQNWvWyPTp06V///5Ss2ZNyZIli+TNm1eOHj2q70lERERERETRIlkGsoMHD5acOXNK2rRpJU+ePFKxYkVp1aqVjBgxQn766Sc5ffq0PPTQQ3LvvffqRxAREREREVG0SJaBbKNGjWT06NEybtw4qVu3rl7rrnr16nqJiIiIiIiIokmyDGRLliwpzZo1k65du8rChQulcOHCeotLjRo19BIRERERERFFk5go9pQ+fXq95MIeWSIiIiIiouiU7ANZFHzatWuXbjkUKVJEsmfPrltEREREREQUTZJ9ILt+/Xo5f/68bjmwN5aIiIiIiCh6JftAdsmSJXrJheNjiYiIiIiIoleyD2SXLl2qlxxSpEgh1apV0y0iIiIiIiKKNsk6kEVKMVKLjUqUKCGZM2fWLSIiIiIiIoo2yTqQ/fnnn1WxJyOmFRMREREREUW3ZB3IWo2PZaEnIiIiIiKi6JasA1nz+NhUqVJJlSpVdIuIiIiIiIiiUbINZA8fPiw7d+7ULYfSpUtLxowZdYuIiIiIiIiiUdQHsmfPnlVB64ULF/QaB3NvLCRmfOzFixflyJEjcuPGDb0mYbjv8ePH1WOJiIiIiIgouKIukLXZbLJ69Wrp06eP5M2bVzJlyiS5cuVS/69Zs6YcOHBA3c9qfOxjjz2ml7w7c+aMzJkzR3r06CHFihVTPbg5c+ZUywho43Pp0iUZO3asPPDAA5IjRw712AEDBuitREREREREFAxx9sDQppcj3tq1a6Vbt26yefNm1a5UqZLUr19fHnroIdmzZ48KItOlSye///67Cm6PHTum7gcZMmSQkydPSpo0afQal9OnT8vMmTNVAGtV6djphRdekAkTJuiWOwTAderUUa/RbNmyZZy7loiIiIiIYkqhQoVk165darlu3bpStmxZtWw2ePBgveS7qOiR/ffff6Vdu3ZSsWJFFcQWL15cvvvuO1m5cqX069dPGjZsqHpoV61aJf/8848MHz7cLYgF9NZaBbGwadMmWbRokTz++OOqJxftF198UW91+fjjj+XEiRO65YJ1CFStglg4evSoXiIiIiIiIqJARXwgi97VMmXKyOeff67Sihs3biwbNmyQJ554Qt/DJXfu3NKgQQMVyJo9+eSTeskTgtxvv/1W+vfvrwLSUqVKyciRI6VEiRL6Hg5Xr16VFStW6JbDtWvX1N/cunWrdO/eXT2uQIECeqtI4cKFpXbt2rpFREREREREgYroQBYFm9ALu3//ftVu1KiRSgG+7bbbVNtKkSJF5Ny5c7rlEl8gayVFihQqldhszZo1eskBwe/69evlq6++knHjxqme4R07dsg333yjenB/+uknyZIli743ERERERERBSpiA9nZs2erMaeoSgwVKlSQKVOmSMqUKVXbm5s3b+olF+Rm33fffbrlO6s5Z9etW6eXRObOnSvvv/++CmZbt26t1zqCYPTSdujQQe6++269loiIiIiIiIIhIgNZ9Hq2adNGpe1C+vTpZfr06aqQU0JQOdjM395Yp4IFC3oEolu2bFHT66A6cvv27dWUPsOGDdNbiYiIiIiIKKlFXCCL6sPozbx8+bJeIzJkyBC5//77dSt+e/fu1UsuiQ1kAanNRgiUkTr8/PPPS9q0aWXGjBkJ9hITERERERFR8ERUIHvx4kVVlhlVip1QeMmqgrA3f/zxh15yuP3226Vy5cq65T9M8WPWu3dv+eGHH+Tdd9+VbNmy6bVEREREREQUChEVyA4cOPDWPEOAns7Jkyf71eNpDmSR+htfcaiEWAXBKOCEnlqkPxMREREREVFoRUwgiyl1xo4dq1sOTZs2ldKlS+tWwpBW7CwO5RRIWjGgRzhDhgy65YBiTuPHj5e4uDi9hoiIiIiIiEIlIgJZFHXq2LGjR8Xhnj176iXfLFy4UC+5oPJxINAbjIrJZqiETERERERERKEXEYHstGnTZPv27brlULZsWXnkkUd0yzfmQBbBZp48eXQr8czjZBFwWxWVIiIiIiIioqQXEYHs6NGj9ZKLv72x586dk+XLl+uWQ6BpxU5WBZ9+++03vUREREREREShFPZAFoWTtm7dqlsOWbJkkWbNmumWbz7//HO5evWqbjkEK5A9evSoXnJZsWKFXiIiIiIiIqJQCnsgO2HCBL3kUqVKFUmTJo1uJQypvuZCUSjQhOcJ1MGDB6VHjx665fLzzz/rJSIiIiIiIgqlsAayCEB//PFH3XLxNwD99ttvZc+ePbrlgGl3/AmGrdhsNnnuuefkzJkzUrx4cb3W4ffff5eTJ0/qFhEREREREYVKWAPZbdu2eUyXA/4Esjdu3JDXX39dt1yCkVY8atQoWbZsmXTr1k3NcWuEIJfpxURERERERKEX1kB25cqVesklY8aMUrJkSd1KGOZzNY+xhUADWQTZAwYMkBIlSsh7770n1apV01tczMWliIiIiIiIKOmFNZC1qvyL6XIwd6svjh07pnpj4+Li9BoHPEcg0+5cuXJFnnnmGUmVKpXMmDFDbrvtNsmWLZsULlxY38OBgSwREREREVHohTWQvXDhgl5yQZEmX1y7dk1atGghtWrV0mtcypcvr5dcLl68KN99951uxe+1115TQfa4ceOkYMGCeq149Mqi1/b06dO65W7u3Lly4sQJ3SIiIiIiIqJgCWsga+5JBYx59QXGrR45ckT1nGK8qlG5cuX0kgOes3nz5jJlyhS9xjsUn8K8tl27dpV27drptQ7mQBbFqlavXq1bLvPnz1dFoqwCdSIiIiIiIgpMWANZpOuaYbwrqgR7g6AVPaYzZ86UOXPmyM6dO/UWF3OP7AsvvCB//vmnfPjhh3qNNfSgPvvss1K9enWP6XzAapwsikEZ4e8giH3rrbckX758ei0REREREREFS1gD2bp16+oll6tXr6oeUSvnz5+Xp59+WkaMGCGzZs2SYsWKyfbt2/VWF2exKKQft2/fXhYsWCCLFy9WhaQwL2zTpk2lYcOGMnXqVLl+/bq6L9ajWnK6dOnUc2N8rBkC7yJFiuiWA8bQOtOLDx8+LA0aNJAKFSpIr1691DoiIiIiIiIKrrAGsuj5zJ49u265oDcT0938+++/qo2iTm+++abkz59fpe1+8MEHt8bGnjt3Tv3fCD2vGL+KysUYq4ogNm/evCrFGH9z9uzZ6nlat24tBQoUUCnECD7xdxYuXChZsmTRz+Tp8ccf10sOSG9u0qSJGk+LnmC8nq+++soybZqIiIiIiIgCF2czDzANsc8++0z1mnqTJk0a1UsLadOmVb21Xbp0UW2oU6eO1yJOCJLnzZsnjz76qGojUL3nnnvUshkqJS9atEhq166t11hbsmSJZYEpQHVjbK9cubJeQ0REREREFJsKFSoku3btUsvIxi1btqxaNhs8eLBe8l1Ye2QBvaHDhw/XLU/OIBbVg9evX+8WxEKZMmX0krtHHnlENm3adCuIBQS2Dz30kG65pE+fXqUIJxTEQs2aNVWvrtntt9+uenMZxBIRERERESWtsAey0L9/f9m4caN06tRJMmXKpNeKZM6cWVq1aiVff/21CkqLFy+ut7j07dtXqlatqlui7jN58mT5+eefJWfOnHqtQ4oUKdR4WdwfPbBI/0WF45UrV6r0YF/gOTC2FuNpAWNpGzduLKtWrZLHHntMrSMiIiIiIqKkE/bUYiso0oQg06rgkjf79+9XwWmuXLn0mvihyBOmz0HqcmKhtxivEcEtERERERERuSTr1GIrqVOn9iuIhTx58vgcxAKeP5AgFvB4BrFEREREREShxSiMiIiIiIiIogoDWSIiIiIiIooqDGSJiIiIiIgoqjCQJSIiIiIioqjCQJaIiIiIiIiiCgNZIiIiIiIiiioMZImIiIiIiCiqMJAlIiIiIiKiqMJAloiIiIiIiKIKA1mKKEeOHJE5c+ZIz549Zfr06Xqtb2bPni3t2rWTgQMHyuHDh/VaIiIiIiJKbuJsdnqZKGSw223dulV+//33W7fNmzfLwYMH9T1EHn74Yfn11191K35Tp06VNm3aqOeFTJkyybJly6RkyZKqTUREREREoVWoUCHZtWuXWq5bt66ULVtWLZsNHjxYL/mOPbIUFlevXpWhQ4fKokWLVBD7ww8/uAWxsGXLFjl79qxuxW/lypW3glg4c+aMPP/887pFRERERETJCXtkoxQCt/nz5+tWeLRv314KFy6sW4E5fvy4ukJjDmaXLl0qNWvW1C3vPv74Y8vAdd++fZInTx7dIiIiIiKiUEnKHlkGslFq9OjR8tJLL+lWeCxYsEDq1aunW4GbMmWKSg82evfdd6Vfv3665d3169elUqVKsn79er3GYffu3fLQQw/pFhERERERhQpTiykmNGzYUFKmTKlbDps2bdJL8UuVKpVKT65QoYJeI5I+fXq5//77dYuIiIiIiJIL9shGKaTSvvHGG7oVHp9//rk89thjuhUcuEqzceNG3RLJnz//ras4vsB9CxYsqJbx2pYsWaKWiYiIiIgotJhaTDGjV69eMnbsWN0SSZEihVy4cEHSpUun18Tv/Pnzcscdd6hlPE+PHj3UMhERERERhRZTiylmmItH3bx5U3bu3KlbCcOUPpAhQwZ57rnn1DIRERERESUvDGQpojjTgo0wPY+vJk+erP7/7LPP3uqZJSIiIiKi5CUkqcWoJDtjxgxVWTbWoZhR06ZNpWLFinoNGe3fv9+jQNOgQYPkzTff1C3vTp8+Lffee69cvnxZduzYoVIZiIiIiIgoPKJ+jOzdd98tJ06c0C3KmTOnHDp0SLfI6MaNG5I2bVq3ix4dOnRQxa0S8t5770nfvn2ldevW8tVXX+m1REREREQUDlE/Rvapp56SuLg43YptKF6EaWbIGnqsc+fOrVsOR48e1UvenTx5Ut5++23JmjWrmmOXiIiIiIiSr5BVLb527Zoq3BPrEMimTp1at8hKtWrVZPny5bolUrJkSdm8ebNuWevcubNMmjRJpk6dKq1atdJriYiIiIgoXDj9DsWUJk2ayJw5c3RLJHv27HL8+HHd8vTrr79KuXLlpE2bNmpuWyIiIiIiCj8GsuRh06ZNsmzZMt0Kj6efflry5cunW8HTpUsX+eijj3TLvpPGxcnVq1clVapUeo0LxtRWqlRJFXpCQHv77bfrLUREREREFE4MZMkDxoG+9NJLuhUeCxYskHr16ulW8AwcOFCGDRumWw4HDx6UXLly6ZYLdvoRI0bIunXrpESJEnotERERERGFW9QXeyLyR7Zs2fSSy7Fjx/SSy9KlS1XAi2rFDGKJiIiIiGIHA9kohTTbNGnShPWGCsNJAZWHzc6cOaOXHFDJ+JlnnlEVoF944QW9loiIiIiIYgED2SjVo0cPuXLlSlhvderU0a8muKwC2XPnzuklUXPMojJx+vTp5ZNPPtFriYiIiIgoVjCQpYgTXyCLId1t27ZVxa4wRjdTpkxqPRERERERxQ4GshRxrMbIOgPZ3r17y8yZM2XWrFlSrFgxtY6IiIiIiGILA1mKON56ZF955RUZO3asTJgwQWrVqqW3EBERERFRrGEgSxEHY19vu+023XL48MMPZfjw4dKvXz/p1KmTXktERERERLGIgSxFJHMge/jwYWnSpIkKZomIiIiIKLYxkKWIhOl9jCpUqCBfffWVxMXF6TVERERERBSrGMhSRDL2yBYpUkTmz58vadOm1WuIiIiIiCiWMZCliJQ6dWr1/2rVqsmqVaske/bsqk1ERERERMRAliJSuXLlpGPHjvL9999zrlgiIiIiInLDQJYiEuaKnTx5ssdYWSIiIiIiIgayREREREREFFUYyBIREREREVFUYSBLREREREREUYWBLBEREREREUWVmA1kL168KGvXrpXx48dLu3btpESJErJy5Uq9lYiIiIiIiCJVnM1OLydbK1askOnTp8vBgwfl0KFD6v+nTp3SWx3i4uLk2LFjnK+UiIiIiIgoCAoVKiS7du1Sy3Xr1pWyZcuqZbPBgwfrJd/FRI/spUuX5Nq1a5IuXTo5cuSIRxALRYoUYRBLREREREQUBWIikK1du7Z8/PHHMmvWLDl69KhUqlRJb3GpXr26XiIiIiIiIqJIFnNjZFOmTCn58uXTLZcaNWroJSIiIiIiIopkMVns6fDhw3rJIUWKFFK1alXdIiIiIiIiokgWc4Hs5cuXZfXq1brlULJkScmcObNuERERERERUSSLuUB21apVKpg14vhYIiIiIiKi6BFzgeySJUv0kktix8eeP39evv32W90iIiIiIiKiUIj5QDZVqlRSuXJl3fLdjRs3pGnTpvL888/rNURERERERBQKMRXInjx5UrZs2aJbDmXKlJGMGTPqlu969+4t33//vdSsWVOvISIiIiIiolCIqUD2xx9/FJvNplsOiUkrHjVqlIwfP14tP/744+r/REREREREFBoxFchajY/1p9DTzZs3VU9snz599BoGskRERERERKEWU4Hs0qVL9ZJDmjRppGLFiroVv4sXL0rDhg1lzJgxeo1IoUKFJGfOnLpFREREREREoRAzgexff/0l+/bt0y2HChUqSLp06XTLux07dqiCUOYKxeyNJSIiIiIiCr1kEchi3Ou6deukf//+KuAsUaKEPProozJw4EA5d+6cuo+5NxYSKtR06tQpGTBggJQsWVI2b96s17pUrVpVrly54nYjIiIiIiKipBXVgez169fl/fffl/vuu08eeeQRGT16tFpXvnx5yZYtmwwfPlyNgcVUOVbjY5988km95O7QoUPy9NNPyz333CNvv/22XLt2TW9x17hxY0mbNq3bzRk4ExERERERUdKI2kB2xYoVUqpUKXnxxRfl8OHD0rJlS9m1a5esXbtWJk2aJPPnz1dT7SCleMaMGbJs2TL9SAcEuph6xwoKOi1evFhSpEhxK0A1S5kypVsAi1uePHnkjjvu0PcgIiIiIiKipBB1gSwqB/ft21el9f7222+SKVMmFaROmzZN8uXLp+/lUKRIEencubMMGTJETp8+rdc61KpVS+Li4nTL3ezZs+XSpUu3bqtXr9ZbXIYNG+Z2H9zMY3CJiIiIiIgo+KIqkEWw2KRJE3nvvfdUO3PmzPLzzz+roNYbFHT6888/dcvFW1qxFcw/a/bYY4/pJSIiIiIiIgqlqAlkT548KdWqVZN58+apNqbOwTIKO8UH9zNDynDt2rV1K2HmQDZLliwqrZmIiIiIiIhCLyoCWVQDbtCggWzYsEGvERk5cmS8PbFOVpWES5cuLVmzZtWt+F29elVWrlypWw4oIIVgmIiIiIiIiEIv4qMxTK3Ttm1bt3GqSBfu1q2bbsXvyJEjesnFn7RiTOvz33//6ZZDQtP2EBERERERUdKJ+EB28ODBquqwU+rUqVVVYl97RP/44w+95MLxsURERERERNErogPZNWvWqOrARv369ZNixYrpVsLMgexdd90l5cqV062EmQNZzFn70EMP6RYRERERERGFWsQGshjb2rFjR5Va7JQjRw4ZNGiQbvnm999/10sOmHbH197cixcvuo3LBaYVExERERERhVfEBrLoid25c6duOXTp0kXSpk2rWwnbvHmzHD9+XLcc6tSpo5cStmLFCrl27ZpuOTCtmIiIiIiIKLwiMpA9fPiwDB8+XLccMI0OAll/LFy4UC85xMXFBTTtDrBHloiIiIiIKLwiMpAdN26cmvbGqFmzZnL33Xfrlm/MgWyZMmUkW7ZsupUwcyBbtGhRv18DERERERERBVfEBbIYl4qqxGY9e/bUS75BkadffvlFtxz8qVb877//ytatW3XLgWnFRERERERE4RdxgewXX3whp0+f1i0HFHkqW7asbvlmzJgxboWiwJ/xscuWLfN4PANZIiIiIiKi8Iu4QPabb77RSy6VK1fWS745deqUfPnll7rlkDVrVr+CYXNacapUqaRq1aq6RUREREREROESUYHsjRs3ZO3atbrl4m8g+/7778t///2nWw7+TLsD5kC2fPnykiFDBt0iIiIiIiKicImoQHbTpk1y4cIF3XKpUqWKXkrYnj17ZMSIEbrl4s/42AMHDshff/2lWw5MKyYiIiIiIooMERXImoszAabMKVasmG4lDEWhLl++rFsu/gSinHaHiIiIiIgockVUIGsu8gRI5/U1JfjTTz+Vbdu2eUyRc99996mCUWaoTGwFhZ6M8BoqVKigWw579+6VKVOm6BYRERERERGFSkQFstevX9dLLiiy5ItVq1bJCy+8IGPHjpUTJ07otQ4Y32o2d+5cVfzJ/DcxTnfRokW65YDU5tSpU+uWqPG3Tz/9tG4RERERERFRKEVUIJsxY0a95HLmzBk5cuSIblnDnLGNGjWSvn37SqZMmTymzSlXrpxeclizZo20adNGPvjgA49AeePGjarqsZE5rbhTp06SP39+ad26tV5DREREREREoRJRgaxVdWIEpZ9//rlueULvKXpcEWy+9dZbqmCUmTGQXb16tdSrV0/efPNNeeKJJ/Ralx9++EEvuRjH1/bv318Fu5988oleQ0RERERERKEUUYEsUn3z5cunWy6vv/66zJw5U7ccdu/eLd26dZP69etL8eLFVbCLwlDmtGLYt2+f+j+eAwFvhw4dpE+fPmqd2fLly/WSS8qUKeXmzZvy2muvyaRJk2T+/Plyxx136K1EREREREQUShEVyEKPHj30kgvGsbZo0UIKFy4sDRs2lEcffVQKFiwoEydOlIcffli++eYbue2229R9r169qv5vhMAVBZ9atmwpzz77rAwfPlxv8bRz50695IKeW/w9TOuDAk8FChTQW4iIiIiIiCjUIi6Q7d27t2UwCwgy0Ru6du1a1UavKsa73nXXXaoNefLk0UsuCISPHTsm48aNUz2q6Ln1Jl26dHrJ5dChQ3L8+HGVxvzUU0/ptURERERERBQOERfIwpgxY2TChAmW88eiIFTTpk3VWNaRI0e6VRMGFGDKmzevbjnUqFFDVqxYoVKRE4JAN3v27Lplf4NSpFA9sgiYa9WqpdcSERERERFRuMTZzCV+I8zWrVvl4MGDaowqKhKjsJMzjdibc+fOqel1Ll26pApIFS1aVG/xDaoWo6DTlStXpGTJkpI7d269hYiIiIiIiHxRqFAh2bVrl1quW7euqolkZfDgwXrJdxEfyBIREREREVH0ScpANiJTi4mIiIiIiIi8YSBLREREREREUYWBLBEREREREUUVBrJEREREREQUVRjIEhERERERUVRhIEtERERERERRhYEsERERERERRRUGskRERERERBRVGMgSERERERFRVGEgS0RERERERFGFgSwRERERERFFFQayREREREREFFUYyBIREREREVFUYSBLREREREREUYWBLBEREREREUUVBrJEREREREQUVRjIEhERERERUVRhIEtERERERERRhYEsERERERERRRUGskRERERERBRVGMgSERERERFRVGEgS0RERERERFGFgSwRERERERFFFQayREREREREFFUYyBIREREREVFUYSBLREREREREUYWBLBEREREREUUVBrJEREREREQUVRjIEhERERERUVRhIEtERERERERRhYEsERERERERRRUGskRERERERBRVGMgSBejm+b9l1czxMmxgH+nR40V57a1xMmP5X3Lmpr4DEREREREFFQNZosS6cVh+HN5KHs7zkFRp0UMGDhsl48e/L+8M7iktqxeSB0q1kOHLjskNfXciIiIiIgoOBrJEiXHld/m4ZVWp++p02Xr6htj06lts1+XUtpny6pOVpd30/QxmiYiIiIiCiIEskd/OyNL+TaX7nEOSrVoPGffNStmyY6f8tvFnmfvhAGlROpukjnPc03blL5natZ2M28VQloiIiIgoWBjIEvnp6sZR0u+jA1L4pe9k29Kx0r1BJSlRqKAUKV1Vnu48VKav+0VmdS0h6XUwe/PsChk58nu56GgSEREREVGAGMgS+eU/Wfbxl3Lg0Tflq2HVJbPVEZQqjzQY/aW8Wi6dOGLZG3JsySJZf0U1iIiIiIgoQAxkifxxZY3MX5JWWg/uIkXS6HVW0hSVzp0fkwzOXtnj+2XfJccyEREREREFhoEskR9uHDsi16v3l96V0+s13qSQzGUelodS6aZHNSgiIiIiIkosBrJEfkiZ51mZ9HF7yZtSr4hHXPrbJZ1eTnFvXsnnbBARERERUUAYyBIlkRvHjsk/qic2hWR5pKqUuk2tJiIiIiKiAMVsIHvy5Em9ROQQ3H3iphzbuEn2Y9adlLmlYesn5E7HBiIiIiIiClCyD2RPnz4t27dvl4ULF8pbb70lDRs2lPvuu0+yZs0qhw8f1veiWHLq1CnZtm2bLFiwQIYMGSL169eXXLlySbZs2dS2oLh50P78G+SqLU4yVuohL9XKoDcQuVu+fLl06dJFt4iIiIjIF3E2O72cbLzzzjvyxRdfyKFDh+TiRevZO/Plyyd79uzRLUruXn/9dZkxY4a6eOFtnyhatKi66BEM1ze/LuXKvyVb0pSWQT+tlCHl0uotRA6rV6+WwYMHy08//SR33nmnnDlzRm8hIiIiSh4KFSoku3btUst169aVsmXLqmUznBP5K1n2yFavXl369++vgpeqVavqte5wH4odtWrVkpdfflkdJJUqVdJr3QVtn7h5RKa99YFsvXGnVBn8sbzGIJYM1q1bp/ZH7IcIYomIiIjIf8myR9YMVwL++OMP3XKYOnWqtGrVSrco1tx///2yf/9+3XKYN2+eSj0PzE05Mb+jlG8yReKafyk/f9lC7mNJNbL75Zdf1IWUxYsX6zUu7JElIiKi5Ig9sgHKmDGjXnJhj2xsy5DBfcxqihQpvPbe++Pm4dnyUq8pcqnGuzJvEoNYEtm0aZPUq1dPypUrZxnEEhEREZH/kv1p9o0bN2T37t265VCwYEG55557dItizZUrV2Tv3r265VCyZEnJnDmzbiXS5W0ypm13+f6+gTJ3Zm8pkV6vp5iEgmLo4X/iiSdUIbGhQ4dKixYt9FYiIiIiCkSyD2SRznf27FndcmBvbGxDkZ1Lly7plkPA+8SNAzKrS1N551wHmTlvoDyaSa+nmDV79mxp166dHDlyRD799FMZMGCATJ8+3esYbSIiIiLyXbIPZJcsWaKXXGrUqKGXKBYtXbpUL7kEtE/cPC6L+zaUHltry2fzh0mNu5hPTCJvvvmmNGjQQFKlSqXXOGB8CBEREREFJtmfcZuDlri4OKlWrZpuUSwy7xMINCpXrqxbfrp5Wla+0Uja//CwTFwwWurmiP+QumDKDqDYc/vtt+slIiIiIkqsZB3IYr7QtWvX6pZDsWLFJGvWrLpFseb06dPy66+/6pZDmTJlLAuCJeyCbBzVTFrOuF9GfPuhNMqdUq+3dmPPJGnfZapuERERERFRYiXrQHb58uVy7do13XLg+NjYhnk7b968qVsOidsnrsiOj9pI04kZ5Y35n8oz+dzTR82uHPhW+rV8R2x1m+o1RERERESUWMk6kOX4WDILzj5xXfZO7SD1ey6QU7b98nG7qlKhQgWvt/KlC8h9BRrI2KM1pW3DbPo5iIiIiIgosZJ1IGseC5kyZcqgzBVK0cu8T6RJk0YqVqyoW764KUfmd5d6z0+TPVdvyrl9m2T9+vXx3jZs2i0nLqeUB5u3l8fdp68lIiIiIqJESLaB7LFjx+S3337TLYdSpUrJnXfeqVsUa/7++2/Zs2ePbjmgxzRdunS6lbDrv42UFs9Olh2XbHqNb+LSlJLW7cpJGt0mIiIiIqLEi/pA9saNG2qeWPNY2ECnWLly5Ypcv35dt3yHAlPmMZgUWs59wvz5BSOtOFXR/rLi7A2x2Wx+3W5e2SADi8Q/jtZfV69eVfubP7BvXrhwQbeIiIiIiKJTVAay27ZtkzfeeEOKFy+upk7JlCmT6mlt2LCh6okFq0D2scce00vuEGjs27dP5syZI/369VNTsaCK7SuvvKLvkbDjx4+r6rcZMmSQ3Llzy0cffaS3UChs3rxZBg0aJEWKFHHbJ5o2bSr//vuvuo8/+0QkOnHihMyYMUO6dOkiBQoUkNtuu03tbx07dtT38O6ff/5R7w8qdmPfvvvuu1XhKyIiIiKiaBRnD+L8y5EMIwSw3bt3l5UrV6o2UoXr1asnDz30kPz111/y4YcfSvbs2WXr1q0qmDx8+LC6H2DuxpMnT6qTfzhz5oy8+OKL8vvvv8uOHTsse7YwVQ/+pi/atm0rX3zxhW45fPLJJ9K+fXvdoqSAqXS6deumxqICLiZgn8iXL5/s2rVL7RNYxjRM2DewDzhlzpxZBXgYOx2pDh06JDNnzpR58+apf4O33v7FixdL7dq1dcsd9vHHH39cjh49qtc4ZMmSRY4cOXLrmKDQGDdunPTs2VO3HHDRBd9JRERERMlJoUKF1Dk51K1bV8qWLauWzQYPHqyXfBcVPbJIE8WJ38MPP6yCWASus2bNkk2bNsmQIUOkdevWqod2zZo1cuDAARk1apRbEAuYYsV4wo7l5557TkaPHi1ff/216s01wxhbX08uL1++rJdc3nrrLdXbS8F36tQp1TNZrlw5FcTiIPnmm2/kl19+UQcC9gm8/6tWrVKBHD5nYxALCO4iOYgFBOKrV6+WRo0ayffffy/fffedPPLII3qry9ChQ/WSOwT6KHBmDmIB7yHTjImIiIgoGkV8jyyK89SpU0d2796t2k8++aTMnj1b0qdPr9pmzz77rCxcuFBOnz6t1ziMHz9e9dzFp1KlSipoMPrxxx99GkeJNM2aNWvqlguCBfT8UfD88ccfap9A8SbARQik3HrrWWzSpIn6fMz7xKeffirt2rXTreiBY6Fo0aJu48JTpEihLrogbdjp4MGDKmvh0qVLKmUeqcnIGvjvv//UdrwvuCBEocUeWSIiIooVMdsjix5WVJV1BrFPPPGEzJ8/32sQCxg3aw5YAAFwQqzeQPT6+gLBLsYgGqG3L77XSv77+eef5dFHH3ULYnFhI770WKt9Ii4uTu1P0Sh//vwe+zNSjp3p1YAgt1mzZqrwFXqlkbEwceJE9b6NHTtWjeGeNm2avjcRERERUXSJ2EB20aJFqofTWainZMmSqvcoderUqu0PnPhjnGRC0CNrfn5fA1l488031RheJ6RCc/xh8MydO1eNA3UGpeXLl1fBWGLSg0uUKCH33HOPbkWfKlWq6CWXdevW6SWR/v37q8B2ypQpqlfWCeOEe/ToIZ06dUrUsUREREREFAkiMpBF8Ni8efNb407Tpk2rxrGiQmtCkEZp5ktvLKD3tHTp0rrlsGXLFr3kmz59+uglx7hcCg70zj/zzDNqyhlA8S4UQfJlDthA9olIhXGvZhs3blT///bbb+X999+XAQMGqBQOIiIiIqLkJuICWRRreuqpp9yqCOOEHAWefOFMOTXyJ4UUVW+N/vzzTzWnrK9QmMoJ43UpcBgn3aBBA7eCWuj9zpMnj27FL9B9IhKhl9V8YQeFndBb3blzZ5XqjkJoRERERETJUUQFsghUEMQaK6xiXtCXX35ZtxKGQkBG6LGrVq2abiUM83MaXb9+/dYAZV+g0BSgNxavnQKDqrroVXSmmAN6zXv16qVbCTPvEyisg3G20Qzp1EitNsJUPW3atFHVmVHtGAWgiIiIiIiSo4g600UP0vbt23XLUZBn8uTJfo3lMwctCCiRmuwrq55fTN/iCxTcwesF41hZSjz0xhsvJCCAw3vs67hYfCbOYmFOmHYnVapUuhW9KleurJdcMLYc6e2+ZjAQEREREUWjiAlkMRZ15MiRuuXw9NNPW86Z6c3+/fs9qtP6Oxby/vvv10suSHf2xeLFi9VryJs3r0qFpcCgWBGmTTJq2bKlW/GihCAINo+RjfbxsU4oTmaWO3duGThwoG4RhRamG1u6dKluEREREblDrHb48GHdCkxEBLKYIqRjx44qjdfIn/RRQG+Umb9BC8ZdoifYyJjqHJ8RI0ao/0+YMCFRlXTJBdPHYJ9Aj6pRMPaJaB8f64Spqcw9y0iN55RPFA7Lli1TU121aNHCssAaERER0Y8//igff/yxrFy50uM8318REciiIjEK1Rhhuh2rKUbig2qtRkivfOCBB3TLN0hDzpEjh245HDlyRC95h38D5jhFj2Fy6fELp6+++kp+++033XJA77y5GFdCzPsEpt259957dSu6oXKzuXcaxcmIQg3Ha61atdQVVsyn7Us1cSIiIoo9qFODeAsZXLNnz1YdmokVEYHs6NGj9ZIL5rr0B6ocI5A0SmxA6W8gi7/dt29fyZkzp4wdO1avpUBY7RM9e/bUS75B6gKm7TFKbhcZzOnFBw8elHPnzukWUdJ777335LnnnlMZNZj2yd+sCSIiIood6FDCeQNqIKEOEToDzVm5vgp7ILtq1Sr55ZdfdMshU6ZM0qpVK93yDXoEjNOzQJ06dfSSf7JmzaqXHBJKLR42bJgKdqdNm+bxWPLfDz/84NEbmz17dmnSpIlu+eazzz7zODASu09EKuN0T4AUjdWrV+sWUdJC4IqLeDabTX1nM4glIiKihKDTELWQAIV6Z8yY4dd0p05hD2THjRunl1xQjdWfSsM4icIJlRFS26pWrapb/smWLZtecogvkEWRKvRIIJ3O31Rosma1T6D6tD+VhpGmYO4dx7Q7/hQPi3SY6unTTz/VLZfly5frJaKkgwtOCGIBY7M/+ugjtUxERESUEExT6swsxNC4xMz4EtZAFgGoVYVLfwPC7777zmOuV3+n3TEy96qicIm5GjKcP39emjZtqnK9EchS4NCDiqIxZv7uE/PmzVMVpI2Sy7Q7cOLECenQoYMKzs2p8OYUe6JgQyV39MDighFSg2bNmiUZMmTQW4mIiIgSVq1aNcmcObNaRgEonE/4I6yBLNJHMV2DmT9BC1Ip33jjDd1yCWQspFV68D///KOXXJ5//nmV2jl16lRJkSIihhtHPRT9wphjM3/2CQTDb775pm65JKfxsajojGB20qRJHlWY8R5euHBBt4iCr1OnTnLy5Em13LZtWylWrJhaJiIiIvIVLoY/9thjuiXStWtXdX7rq7BGXyi7bIZKrA8//LBuJWzy5MkeY2whkLGQVoGsuYDOBx98oAYnf/HFF8mmCm4ksNonsmTJotIPfIXU5O3bt+uWS3IJZBG8ohozLqQ0a9ZMXc0yQiBvLnJFFCzTp0+X77//Xi0jw4HzFhMREVFi4RwftXAAF8n9Kfgb1kB227Ztesnl/vvv9zn9899//5XXXnvNY97XXLlySb58+XTLf+YxsmAMZBFsvfjii/LKK68kuyq44Wa1T2AKJfNn7A3GM1v10OfPn1/uuece3YpeGEPw0ksvSeHChWXMmDFqnTmQBY6TpaRw5swZ9d3nhAJs9913n24RERER+Qfn+KiP5ISOwkWLFulW/MIayGKMqVnGjBn1UvwwNqt169Ye049A+fLl9ZILKhqvWLFCt+IXX48sAq169eqpG6oVU3BZpcT6uk9cu3ZNzeNbo0YNvcbFap9ACnM0VfhFT2ubNm1UOv3MmTNvzdWZJ08edQHIyNs4WTx27ty5Ac3ZRbELBdSOHz+uWyK9e/fWS0RERESJU7BgQbc56H2NsSJuYCdOtH3Rp08fVa65ffv2qmiUkTlowXMiAPB1jldvgezu3buldu3aUqhQITXdj6+9hBQYX/eJbt26qWmQEMyalStXTi85IJBr3rx5VFVaHTp0qKxfv14++eQTKVq0qF7rYO6VRbq9eToqePnll1WPta/vKZETLvwYv0Nx8cTqAhERERGRP9KkSeNW82Xt2rXqlpCwBrJ33XWXXnJBj6dVT63RO++8o8bGzp49WwWXZuagBVNEbNy4UT3GF1apxZhmBz196dOnlwULFiS6IjLFz2qfQPEiq6DMCRcyUDUac1Bhn9i5c6fe4mLeJxD0Ik13woQJek1kw3zLCGSRSm8VqJsDWfROm8fJzpkzR01ThSl7MLiewgNV0KMRvj+dBZ7AXGSMiIiIKLEaN26slxxGjRqll7wLayBrVZAJAYu34AIngM8884wqLjJt2jQpU6aMbN26VW91cRaLQq9Tz5495csvv1RT9DjLOyfEahqJ0aNHy3///adytq0CXQoOq30CFzZQ4MgKeokwBdL//d//qZLdxYsX99gnUFG6ZMmSahnpuSiSNH/+fLVP+Jq2HApIfW/RooUKso1jhbG+bt26Kp0dwawVq3Gyxgs3uKqF6rKDBw9Wxw2Fj1UhMlx4iGRXr15V82UbsT4AERERBctTTz2lemadMJXm33//rVvW4mzmvNwQQlCBOTCNV/kBgQdyo3FCj0ADBUbQizR+/Hj1D0JQ6RybVb9+fVXB1ejDDz+UWrVqqfv8+OOP8tNPP3n0yMUHr8vcY4U3FpU6rQIGCh5cyEDlMnOvPAqADR8+XDp37qwqW2PaJsw3hYsemNMSKcKYEgRQxhufu9Hnn3+uxlO/8MILsm7dOlUMyRncRoIdO3aofdQ49RB6vJC+iddeoEABNZ4X/3ZvUNAKvcxGKEiGVHlc/MFA+sWLF3OqqDDC53v33Xe7fc5OyBopXbq0bkUW7IPt2rXTLcf3Ib63OXesd7j4hu8Yf357EgMXWHF8Y9gA9i0KHI5F1BnARSf8vuCcAN+9pUqVUhdwMHd8JM5JvmHDBvU7gdd/+PBhNYQmU6ZMaigKLmDiQrFxDFqo4YIYihViWBi+T9AxQckL9rkffvhB7Ys4fjCNCobhYT/EORiOH/PQqEiGc1KcX+KcNJQV+jGM7PXXX5c77rhDzcQR7d/tGJK5a9cutYyOmbJly6plM3S2YPv//vc/vUZUh6SzuKmVsAaygECke/fuuuUOJ0vOQBYHB344kFaMVGEnfDGjZ80KemCRampV/CchKVOmdBtHiGl2nn32Wd2ipDRixAjp37+/brm77bbb1Mnz6dOn1eeDfWTkyJFupbpxscFb1V4EdbjCY1UkLJywf6HH1Aq+wPCjkFB12F69enkdB54zZ07ZtGnTrfLmFHqoso4LKd4m+8ZcycgeQfGuSIPaADg5ccJ3qvliUSBwkRDf8+GAH81gBuQIfDDPM4YD4LPG8yclXLyqWbOmKpSHoQP8nUo8DE/BOYYxIwbV7vG7g/oLCMQAU8IhOwYXVsN9YRDnRrjQhO9+q6r/RggmsH/gZNFqGE9S69Chg+qUALxvyIxCDwxFPxwbOHebOHGiOlYA59E498C52qFDh9Q6QFCD4AzfW5EK/x5kteH7ABeFnn76aVUoMxTwXiHYP3v2rGpjahpkGuL9jFb+BLLojMRcsk74fT548KD6/rKEQDbcBg4ciGA63tv9999vW7t2rX6Ey6uvvmp5/xIlStj27Nmj7+W/tGnTquex7zi2SZMm6bUUKn379vX4TM23Bx980Pbrr7/qR7j07t3b8v72A8dmP8nU94osO3bssMXFxXm8ZnvwatuyZYu+V/z+/vtv25133unxHPny5bPt3btX34tCxX5SaXvxxRdt7dq1s5UuXdpmPxn2+GzMN9ynVKlStmbNmqnHjhw5Uj9b+NgDJI/XPnz4cL01OLp3767eo+zZs7v9naS+pUmTxnblyhX9KgJnP9GxZcyY0XbvvffaNmzYoNcmvRMnTtgqVaqk/k19+vSx2U8c9RbyBd6/evXque0b2Cd///13fQ+b7eTJkzb7ybfNfjJ16z5lypSx7dy5U98j9HCO8+ijj7q9bl9u2bJls3399df6WUKnePHibq8Dv/MU/TZt2mSzB1u3Pld74KF+u44dO6bvYbP99ddf6vNOkSLFrfu1bNnSdu7cOX2PyGAPYG0ffPCBLXfu3LdeJ272QFbfI+n9+OOPbn8bN3swrbdGp4IFC6pzXNyeeuop25AhQyxvsG7dOo9//xdffKG2WQl7j6wTetCQioWCNPYTC7UOKTCPP/64NGjQQM1XiC52M6SYIo0YBYEA88eih7dLly4BpdCg5w4pBZjLyGrcJiU9pIQjpeObb765dSUcxbbQO4R9AoPCrXpSkMqC/cZ5dRopt+ixxdhYXFmPVLiqjqJVuBqH7APs17h67U9KCdLs0UuA+XTxXiF1y/7lkCzm0I029pNMt17MxMAVSKviXqGE4nY43ozw78IxlhTQk4mUKhz/8UGpflztxzAQ/Izhqj/+j7Ttf/75R92cV7S9QbolKnwHA3ojkN5bokQJWbhwoXptoYQaEvidREpWo0aNZMqUKWFNI40W+L6tXr262E+0VRtZPvgu9nbcoZgghn2g5x3w/Yw0ZOyPoYTjBD0bxjnu/YF0T/TiesuISwrmYT+obYFjhqLXsmXLVP0O53AZfO/hOwj1SqygVxPnJc4CnhUrVlRDnoKZFZMYGD6A4x6ZFvv379drXULZI4uUbOP7h+wFvL/RXGTWnx5ZDJdBNq4xKxbTrWK2GEsIZCOJfWey2YNTdbt27Zpem7DffvtN9WrduHFDrwkMon/7zqRbFE7YD3A1/PTp0z7vE+iRQI8YrpZHW++E/QTcZv/S0i3/4RjCc9h/KPQaosTr3Lmzx9VR+8m/3po0kDlh/pvOW5YsWWz24FPfM37obcWVbPuJla19+/YeGQtdu3bV90w8fCc9//zz6vmQ/YDevXBBb0Lz5s3VaylXrpz6ziTv8LtiP8Fy2yfefvttvdU79BgYe5buuece2+7du/XWpLd161bV82983cgeQwZP/vz5bfZgwpYuXTq37d5u06dP18+a9MzZd3gfKXrhexi9r87PE8fEypUr9VbvRowY4bYfIJskkHOeQOB86dNPP1Xf3cbXZL6FskcWr8n4W/XII4/oLdHLnx5ZKFCggNv7nyNHDq/n8hFX9QU54Bjbips/xRSQQ46IH1cuggHjSKJpQHpyhv0AY5LQO+XrPoGrzcWKFVNXybEcTZANgN7UxMIxhOeI5N5nih7GoguAzJik7m2Mb/wexp/6WnkbvWv33nuvKjCC+Zd///13KVy4sN7qOS2Xv3CVHBk7GEuF14x6DeGsao/eaVT0x2vCuHr0IjizWcgTCg8Zp2vDjAfe6jMYYf5k1CRwQgYMKs5jvGpSQ6YBejScBRHxWjCmDOMS0ZOEXg/0MqOOhD1IVeMQ4/sNxFg03D8Ypk6dqoqy4G9bMWZxoCfbW68MjtUXX3xR7cMUmVBpHz2rGJvvhN59X+qP4LM1fvbILkBhylBDDx/iBozrbdWqlRq3W7VqVb016eA4RT0DZO5YwTkcskSc0ONtBWN38X311ltvJbvveWQ2GR07dsxyxgdFB7RERERukNWAnwnjzX7irLcmnfh6ZH/++Wd9r8RB76zzuZDJk1i4OtygQQP1PKipYD8Z01vCDxlNefPmVa/NfrKp15LRxo0bPeoSzJw5U29NmD1wtKVKlcrt8e+++67emnTsJ/y3/l6HDh1U701CkK2G3lrjazXekHURKGO9EvRQr169Wm9xQcaAsye5S5cueq3LmTNn3MYqo1cqkGOUks6oUaNufU644VjwZxznrFmz3B6P3lyrOjhJBccN6qmYx7gji8U4Dt55C1aP7NGjR299N+PWtGlTyzoN9uD61n127dql17osXrzYljVrVrfniWT+9sgOGzbs1r/NeUNPvhXOw0FERJbMvbFg7NFMKt6uvKI3GGOqAoHeWWR2YEwWrsYn1oABA1TVVcBYv0BfVzA5K/bjyj56yd5++229hZwwPZ/9HEi3HD2E6MH2FeoOmCvuYmz3vn37dCv4MB72gw8+UMv9+vVTU9DhM04I9nOMZcydO7de4w49U6g3Egj0Zjmhhxq9SMbebkDGAHqQwdjjBKiNYp5OEWPcMcsARRZU4H/zzTd1ywHHArJffIW6C8b6HxgPiWybUGQ1AI4bTOVpHtuOzD9vmQLBgF5Y47yoqGzfvn17t+8iwHSJgPcUdV6MMCYfxwo+Byc8j3OccnJg7pGFJUuW6CV3DGSJiMjS0qVL9ZJLKAJZ/FBbQZqkr8ML4oM5QTFnb2KHouDkGtMyAH5wk6pgDk5OMH96YiBNtk2bNmoZ8x86g24SFeQjndGoefPmHvPHJ8T5/jqh4FZ88x0GCsUPEdxh2Ixz//MVCmHiuLIatoLiKoFOp2WeNgyBMVKJzYG98+KRMVjASfxzzz0nK1as0GtcrIp8UngNGTLEY7o087GQEBxrOOaMMPTDeCEjXOKbrz9Q999/v15ywcVGzJVqhOAVwbY5qMZ7ZDVkBMd1MH4bI4VVsbCVK1feKhJmxECWiIgs/fHHH3rJJRTVWb1VLEZvajDgxzCxV91Rjdo45zN6onzpFfMXKvljDJrXcUE+eOONN9Q4YQQK7dq1UxXdSdSYZjPMP+4vjKczjz9F5VMEhsGGniqMqwPMv5+YfQ7BLCpbW9m4caNeShyMxzUfUxjDh54l56wSgAthqEiaN29e1UZPHObXnjlzpmobYYYC1CuhyIGec8x3boRjIDFjS8298oB9OzlD5e6RI0d6BMu4YInvaOesLfjefuCBB9x6JvF7jN9A80UEVKfH45NTXRRkvJi/W3GhcNOmTbrlwkCWiIg84AfVObG9kT/TQSUGitlY/VgBpj0JFArR4N+W2EJPuHLunPIEJ2/OFLBgQrCM6cVQUAXTcCUWesmcgQD+3ShuFOtOnjzpcaEEJ0xVqlTRLd+hwBcKTRrhJBM9LMGGYwLHI4rSBLLPdejQQS+5c04/lFjoJV63bp0sWrRIXn31VXVsIH0fhaTwehHoAr4/EMiCc8ooFKsCZBFgmjyclK9fv14VT0OqJ0WO77//3mPKJxwD8RXo8wb7hTlYQWaAc5qW5KpPnz6ye/dulWGBTIQCBQqo9wEXwRDco7ARGI+V1atXq+ErBw8eVOuQyo3jDFk7+L1AEJycoHfZ6tjfu3evXnJhIEtERB4wjge9JWaJOWHxB8bBmMcLAU6WvI3x88edd96pfvhR+dVfeG3GccMYZxlseG0I2BFwodetRo0aekviIDBwQoBllS4eSzAv+fXr13XLAWl8id2vrcZGo3J0sDmD79dee039P7EQsKNn1sz8niQGUvVRMRtjspHGjKAeY3ORdooLQDhpx4UqnLQj0wDBLioT44QcwQt6bidNmiTdunVTF5rMQQ6FHwIns0cffVQv+QfHHII4I3z3Oy96JGcY+9qpUycVvKKnFdkyuKCDnlhc0MF6BHP4DcZ8z7igWapUKTWeHYEuUrBxnOFCEHovkyOrGQCM44udGMgSEZEHBFRWkjqQxRV/K8FKK8bJNk7k/Z3iCqmdxh7N7Nmze50WIbFw1b1ChQq3escwzRAKNwUCAcGDDz6oW6LSOJ3pa7Ho66+/1ksuVoGdr6weu3btWsuxXIHAZ9aoUSOPHuDEQMqiWVKMC8SFGKRso+fpwIEDkitXLunRo4ccP35cjXfHlEXoYcEJubmgDUUe7IMLFizQLZdgHz+4+BFrMGVi586d1QUgZDWgqBveBwwPwZh+DDXBRcjWrVsHND1jNMFvrBkDWSIi8olVIIsCHejRTCq4Gv/DDz/olrtgpBUHAhVif/vtN90SdYU8mGNj0YuHk3tjJUrjvJuBMFbj/fPPP1WV5ViEqp5W46+tCrD4yuqxOOFHmm0wDR48WObMmaNbgXGmKxo5x6wmFVwIQqq8cxlzwyMdGT1QFB0QTJnTiiHYxw/SyoN9ISia4DhxZiXhfcC4cnMxtVhg1SNrVRWegSwREXmwCmRx8pmUtm3bdmt8kBHG2vkzLhC9BsEKAgEnFeYpbFCIJhhwYohUShR2MveUJkUgCxiD6AwqYgmmg7FKoQ3kJNHbSXwk9ypZ9cgHmsLuDVKIkYKP92nHjh2qOBpSIVEwaNiwYfLII4+o/dF4ASfU8LeR8uwPFPTCNEPBSMmOFvh+thJIIGt17GH/XLNmjW7FBvybkVKNYlD43kdtAyyjQnTRokVVWjHGwaJX1mrITzDh+ZE14a8LFy4EtaAgU4uJiCjRrIoqhCutGCfZvvbcIOjEfJ7BLBKDqVqQGmkUSBEmwA8+TupRBXrixIl6rQtSoHEygTGdzpu3efQSgnRlY+ooTtwjYZqLULOqwg3BPhGHLVu26KXIg/HXRqh2Gox5kHECjDGvqDyL8bCYagfTaKBKNMb5YQ5N9C7hpB0p7zgpx0k60o0R3FaqVEktf/LJJ16DpmBAoR2kbjZr1kwV1MEJM9IYu3btqu/hHS7wIQUUF/UwzhGv29t0YcmNt+MnKS4ERfLxEww4BvEdPGjQIHVRFPshCrlhWh1MsYMp3TD1FH4HsIzaDCiEhSA3Z86c6uIk5vLFcwQ6BzQu4uDCGzJ1GjZsKDly5FD7NbJ3fIVjHL+5+HdgzLQxeymxrAJZFLvyuHhk/9EnIiJyYz8JRW6T261y5cp6a9KwB6wefxM3e6Cn75GwDz/8UD1m+vTpek3gunTp4vZ67Cewekvi2ANtW8qUKd2e05ebPdjQz+C/EiVKuD1X3bp19ZbY8dprr7m9B87b2rVr9T0SJ126dB7PWbJkSb01sly4cMGWJk0at9eK4y5Q9hNXmz04dXte3LJmzWr75Zdf9L1stlWrVtlSp05ts5+w6zU2m/1k3uNxuDVt2tR25swZfa/AbN++3fbqq6/aChYsaPm3nDe8Pm/sAastY8aMHo/B94E9iNf3Sr7sAYrHvz1t2rQB/dvXrVvn8Zy49erVS98j9OzBnMfrsQeOemvgRo0aZbv99ts9/kbz5s1tV65c0fey2Ro3bmzr3bu3btlsR44cseXPn9/jcZkzZ7ZNmTJF38s3M2fOtFWvXt1mDxY9ns95w2+pL+xBucdj7QGt7cSJE/oeNnXcxcXFqdtTTz1lGzJkiOXN6P333/d4Xtz27t2r7+HAHtkoZf/s1FWJcN7wGojMrPaVUN6SOu0mVlil+iXl+FiMX0TPpxVfCz0h7ahv376qhykxVYmtYJ9CsQ2jhx56SC8lDiq01q9fX11Vx81qTtvy5cvf2u682U/s9Vb/mV/z4sWLVWpkLEFqsRX0IgTC6vHmHvxIsWLFCtXrY4TpQAJlPwlXvbFGKEqDwjUoWuaEnlaktRs/C/QsWc0XO2vWrFtT8wQK1V6R4fDyyy+r14leVKspuJDubAVTAeF76Pz583qNC543Fn53rHpk0ZMdSHVp9P5ZidTjJ1DIQkDRQPzeGWHfsgejbplHOFaMmQnoJUVWg3mID6ZW69ixo+X4ZW/w+zJ69GhVkwJp/saCgE4rV67US/HDmHfzPoBjApkVgcCQIivm3y0GslEKE6Oj8Eo4bzigiIxwkmS1r4TyNmTIEP1qKBDmk13A+5tUcGJp9TcxPYMvqZ/40cV0Hhing7Rfq4I2iYETD3NQb/Wj7w+MhZo7d+6tm1WaMk68jffBrVevXnqr/8yBLE4+cOIUS5BSaiXQgkNWxwXS/cwnq5EA+7MR0gAxZU6gzEMRUAht5syZHsEiptgBc+owUhMxNZBZsMbcDR8+XJ1Yt23bVl04wncFpvpB6qYRChrh4pXR1q1bVcVonFiPGTNGHYfGk2xMLRTMwm+RCN+BVimsSXHsQHINZK1qT5QuXVpdtMF0O04ISlG93nyc4HscvwXm9x1FofwJZJEOXqJECSlZsqSaHgsXa837sPNYTQhSgDENkBlSpAPh7Zgyj/FnIEtERB6sgsqkPFnzNj4WP/LoCcCPIn7UUQ0WvTwI9HBBD/NqYtwdToIxfgYaN26s/h8MVr3EgfbImmHsk9F9990X9L9hFXyjOmgswbymVgK9QGM8ATWKtB5vZFGZL0APHTpULwUG04I44SQbQeNTTz2l17g4q0abx0DiMfPnz3c7dtOlSxfUY9kMJ/IYl2uEIk4IXJ0QHOAkHb3uGzduVEErvneQ/YFK5ggARo0ape+dfHk7drzt+77yduwl12wRFHAy9kKjcjd6+83TX2HMKo5XXEA4fPiwXuuAizA4jo3Pg4r3GLOdWDgWzMcrLvz5ejEOdR5QkMoo0DoV3vYtc6FCBrJEROQhUgJZTEuDojEoCoMfW1Q5xQ8uUhFffPFFeeedd9zSFHFihLTdYLFKRw20R9YIJ8q//PKLbjngpCTYrALjQK+YRxvzlXynQANZb4/39vfCBUGXsVcaPbHVq1fXrcBgrtgvvvhC3n33XbVfodiTGS5COauOWmV04cQXrxFz/WK6IaQ9osc4KVn1AhunTurQoYO6QIbXhQtMTpj3E9uSMtCOJLF+7AQL5nDGxVFc/Pjss89Ur6dVUSP87jlZFeZD0Sdc2EUqPIo04SKQObvAX5jz2Qjp8saLOvHB8YALskh/dgr02PV2vmEOZOPsET8HOkYh7Fy+5q8nFZxMBlLtkZKfI0eOqLSXcEIqm9XYJ/KP1binli1buv3ABgvmhrOaxxI/zOiV8SdFE2m63oLixEBvrzmYRW8SgupgwEmKOfCeOnWqqmAZTJjWyHiSAbjijfc20PTAaJE5c2bLniWMe/Q2HssXGANqlYa3efNmlboXCXCqhwrCzmqi2BewH2OMY6hgGh6k5jrhPAavKZyQam2e5grpxwgyUNn4hRdeUCnIzz//vN4am/BZWe3LDz/8sM8pqFbw/WN17KFi79mzZ3UrtFCPAFXijbAuVOc2eE9wXCI7AGrUqOGRtZMUNm3apDKgjDA1FqaH8xVqVLz33nvq/OHQoUO3eolxMRq1IQD1K6zqQgAuYDnhghbG3pvhs2nQoIFu2SGQJSIiMkppUVW3WbNmemtwOSsNm281a9ZU22/cuGGzn9SoKoio3Hjw4EGbPfi17dixQ1U8tQe8tx7z0UcfqccEw7Vr11SFVeNrws1cNTEQqM5pfn570Km3BpdVpcxt27bprckfKuia//24nTt3Tt8jcewn85bPG0nv7axZs269Lhzby5cv11tCx1xx1VylNBzOnz9vS5UqldvrKlasmO3vv/+22QMsW5s2bfQ9Y9vvv//u9h45b6VKldL3SBy8/1bPmyVLFn2P0EvqqsUJWbRokdvfxvF66tQpvTXpXL161eNYQMV+f7Rt21Y9rnbt2nqNQ2KqFmPmAeNrcd7w/hgxtZiIiDxY9dKhQFBS8NaD6iyChJ5ZXKFHChZ6knLlyqWKVeAqLyqeoliF836YBy9YUGzDnMYEgabTGZmvtCOFOtAqut6Yx2FBLKUXo5q1FXNxH39Z7SPg7e+FGl6f/SRRt0Teeusty5TapIZKpkbI4Ak39Aaasyt27NihemVxnMfC+FdfhPrYiZUsESvm4wS/u8EqehYf7O/mYTP+/D7gs8R4X8B80IHydr5h/v1lIEtERB6sgrWkCGRxIuQtbQoTxfuiRYsW6v+VK1cOaqqk+YTCKVgnWXh+88TxKAaSVKw+08QGE0gdC/fNX1Zj0cDbybSvvJ3MIy0+EgwaNOjWfoY09ldeeUUthxrGtzvh8/N1Wq2khu8NI3zPoXoxAn6M/UsK5n05HDd/xOqxEw5I1zZeOMAFW6uhN0khkEB23rx56jcN44CDcWx72zfMv78hGSO7fft2VVo60Cs3yQEGLyPXHjtqLEMuPnb6pOrhIf/hyjSKVyRVb1A0QMl/VMP1Z0xmpMMJC8bY+FtACAHhP//8o1sOGBdvVXgiECh8YT6RBFRkRJDlywkX5kTFD+fYsWODciXYacmSJZZT42AaCoy3DBSm4TGPhUURnGDNgWuGkyGMRzZCsazEBDb+nggnBX9PXzAPL4r2mGEsV86cOXXLfyikhd57I5yI4nvEW8GSUEH1U1wcQeEWHGfIfghXkIDCZigChe9ZHKfo9YwEc+bM8Zg+BL20GPuZVJ9fNB4/Vr8JCFrM+74/8B1vdezh98o8VVSohHuMLKB4Ey6k5M6dW833Gqp6NDguMS7WCN9jmBM6IfjMUJXc6nc4MWNkUfkc8+OarVmzxu2iWEjGyN577723cpt5E9t9992n35nYdP36dTX+weq94S28N3sgqz+l2GQ/4bN8X6L9Zj9xtZ0+fVr/K31jP5HzeJ5q1arprcEzcOBAj7+D27PPPqvvkbCvvvpKjb2xByR6TXDYg0rL1xbomEonHG/G58X4JIwZSyr2gMvt7+H2xhtv6K3+MT9POG7+sgfsls8T6Jhn/Kabn7NIkSJ6a/icPHnSZg8S1OspWbKk7cyZM3oLGR0/ftzj82vatKnemjTMfy8cN3/ZgweP57AHWnpr4mAssvk5cevWrZu+R+iFe4xsOI0cOdLj3/7nn3/qrd6tX79e/Qbje+batWt6rUtixsiOGDHC47XgtmfPHn0Ph5CkFlesWFEvEaB3JJbhCqfb1RSKCOhBiPVjFeXiI+FKebChEqG/c7pZXQFOinE63sbH+ppWDKioWb58+YB61ax4640JViaJc05NJ/wbAqmemxCrfTs57u/eeJs2yTxPoz/Q02k156X9xE0vhYf9/E71ZuDfht4QTGVz55136q1khJ5G8/RU9pN3vUROVscPqqHjGEgsZENYCffxE6usfvcTmtMX3zXdu3dXNSowt7K3+V/9dfLkSb3kguc2ToMFIZt+5/Tp00wjtcOHEOgkwckF0vMC+QKk4ELqiC/pI8kd0t+s5lCNVghU7rrrLt3yHeZoxcT/RhgnFcxgFpO9I5Xd/D2A14yxNt7GZZkhNRZBbDDTigFpmVYXHvEe+PravMF8mvny5dMth9dff13eeOMN3Qq+YKYWRyOMezTPlQhTpkyRZ555Rrf8gxNxpP+ZDRgwQIYOHapboffyyy+rOV2xj2GqPuc0GGStffv2asodJ/wWYqomq3HlsQqF9fAdZYZ5dlGALzEw1Vjr1q11ywXDOpKyXkB8IiG1OFxWr14tlSpV0i2HGTNmWE6D44TgFdNTIS14iKGonFFiUovxnHhuI8tUdgSyRERERvYg1iOlB9Pc3LhxQ98jcNOmTfP4G7hhOpNIsG7dOsvXd/jwYX2PxJs8ebLH865YsUJvTRrONFPjDZ9zrMAUTubpJXCzB5z6Hv6zB4kez4cb0t3DZfTo0eo12IMLlbpJCXviiSc8PsM1a9borQT/+9//PN4j3HAMJBaOPavnPHDggL5H6MVyavEff/zh8W8fNWqU3uoJQ5ayZctmq1Kliho26E1iUovxnptfS61atfRWF1YtjlIffvihqqYXzhtSlYiM1q5da7mvhPKGXggKnFWKEXpOrdJ9EisYacVJyZxu6BRopU4wV2pGSnGFChV0K2lYZRqEqhpmJMAUTlbDWsy91P6weiwyCqpWrapbofX555/LSy+9pDIdsI+FqkhMNMP5FArGmaEHn1yQzZA2bVrdctm/f79e8p/V8YMsAqssB0p6VplG8aUW9+rVS6UWT5s2LeiF0ZCxZWaV3s5ANkpdunRJnVCG83blyhX9aogccIJvta+E8pacKg6Hk7cAx1y1MhDeLoZFSiCbJUsWVT3ZLND0avzwm8fHVqlSJcnTGK0C8MKFC+ul2GA1LUQggazVSTzS5sJxIo7quxgXi4raSM3Mnz+/3kLe7N69W/r06aM+LxzvRgxk3aHaNb6nzIJ9/DRu3FgvUajhu8MckHqbog2p+JjlARfPgl2fAnA+Z4bUYjMGskRE5MFbT06wAtlt27ZZXunNmDGjKroVKYoWLaqXXAItBIM5Pc3BsL/TI/nrv//+k7Nnz+qWAwq8xVKPLDzxxBN6ycU5disx/vjjD73kYp7KJRRwUQhTOWFsJ3oXixUrpreQN5gSEuMzcVEePUrmXnSMF+S0ke6sLgQlh+OHHJBNYr6gY/Wbj/llUeAJtTSSaro4qx5Zq0A2ZMWeKLjWrVsn3333nW6FB4pj8IovGeHq6qeffqpb4YH0p+rVq+sWBQJpRuYfk6+//lrNxxmoESNGSP/+/XXLpX79+moOvUjRu3dvGTNmjG45oCCTVdETX6GIFk4AjFB5uXjx4roVfJjP3fz8CHZwQSGW4JQHhWnMvQwovpWYNNw8efKoeVGN9u7dG9ILBAi4nPMdI4i1mpfZVyh2t2LFCjVndHKHwjKYq3PIkCFqGcc5jnej9evXS7ly5XSL0INdoEAB3XLAMZCYXlk8xnycoCJtIKnKwRDLxZ4AWTo7d+7ULVFDXjBszAlZb8g6uf3229Wcrr5kEvlb7AnZQ8gAMBcJxu+Yx8VlBLJERERmVsUW4iv84I+aNWt6PDduEyZM0PeIDJMmTfJ4jc8884zemjgodmF8vuzZs9tu3ryptyaNOXPmuP1N3Fq0aKG3xpZhw4Z5vBefffaZ3uo7qzkwy5Qpo7eGxqZNm2x33nmnLU2aNLbvv/9er028Tp062Tp27KhbyRcKOaVMmVLNje0sYLdlyxaPz/Pdd99V28gFBXfM71Ni5mL+/PPPPZ6nT58+emv4xHKxJ0DhJuO/3R7Y6i02daw0btzYljVrVo/5XOPjb7Gn3377ze014IbvuP/++0/fw4WpxUREZOnxxx/XSy7B6MFDmuuqVat0y52zZylSIBUV8+MZBZJajCvNmA7FCFP8IKXLaNCgQTJv3jzdCpzVa46FXjcr3bp1U4WfjLwVHouP1WPsJ2N6KekhLRPjydFDMnPmzICPHUxDNGnSJOncubNekzxduHBBpRRjPCD+zc7jGxkL5rTKn3/+WS+5Q52SL7/8MianELSarisYxw+GlfTt21e3KFxQNNMIWRpO+O5cuHCh6rE2Tx8XTDt27NBLLsg0QS+tGQNZIiKyZBXIIgU2UDg5tCoWhxQ1q6qE4YQiMOb5DAMJZFFAxjxW1fz8s2fPlunTp1u+/4llnnsPJwQNGjTQrdhy5513SteuXXXLARcN/B3//dFHH+klB1z0qFOnjm5Zw36PlHrM64p55ZGmOXHiRL+LJyL9EvsHCqJ88cUX0rBhQ70lcRYsWCCdOnWShx9+WMqUKaPXJk9IH8bcp7NmzXIrUoOLSeZiRkjbtgpW27VrpwJZ80WuWIChO+XLl9ctB1wA8QeGrJhTdV977TXL4npWcLwisEFleRzL3goSJYYtxkdcegtkcQED33ko7lSxYkW1LqlYBbLexuIykCUiIksIKs3jBvEDE2gBlG+//VYvubOqiBkJcNJqdPr0acuKir6wqtRsDGRRCAoBBYITTMkTLObgu169ekF9/miDMcrGXlkEkp988oluJQx1KjZv3qxbooLSUaNG6ZZ3qC2B8eEodIbxXxhziF6ORo0a+XxcHTt2TO0zhw4dUr35mFYJJ5f+3lB19P/+7/9U8I2LGuhlTO69sRjjj8953Lhxqp6CmXkdLjoZP2fAWFr0Sk2ePFmviT2oE2CE9wjHhK/wGRgv3mCsrLlugDfYd3G8IKsHF+gwfRIKdVkVB0oMHAexzDwFz/nz51VNiOHDh8vQoUOlRYsWekvSsQpkvV4kdGQYE1FEuXHOtnflDNu4oQNsL3Xvbuv96pu2sdN/tv152jGWhyhUnn/+eY+xKtu3b9db/Xfx4kXbXXfd5fGcuA0cOFDfK7LYT2xsmTNndnuty5Yt01v9U6JECbfnyZMnj97imIz+7rvvto0dO1avCQ68/vTp07v93Xnz5umtscse1Li9JxhreuDAAb3VO0z8X7ZsWbfH9uvXT2/1zh60uj3GfHv55Zf1Pb07deqUrVixYpaPD/SWMWNGm/2kVf+l6DV79mzbk08+aevQoYMaQ+w0Y8YMW+rUqW3d7b+p3mzdutXjfcHzOM2dO9eWKlWqRI2pTm66devm9j7hmLh27Zre6h2OMRxrzsdh3OSCBQv01vjh+e+99163v+u8GcdYJhaO7Rw5cng8tz2I0vdI/t5++22Pfz9u7du31/fwn79jZIsWLer2tx944AG9xRMDWaKIct12aOn/2VqWyGxLGef+JYIi46myFLc1/7+fbEev67sTJTHzyT5uU6ZM0Vv9N2bMGI/nc95atmyp7xV5zCdtL730kt7iOxSqwA+58XkQPPz1118qMMYJWrt27fS9g+eHH35w+5sIli9fvqy3xrbBgwe7vTcoQnblyhW91dqgQYPcHoOiWc6CQfFZuHCh2+PMN1zgie9vI8gsX7685WODcevSpYv+S9Fr+fLlqoiT8d9VvXp1W/PmzW0pUqSwPf744ypY8QZF13B8GB+PW//+/dUNz/Hcc8/pe8c27Kt4P43vU0IXI69evepR6G/8+PF6a8JQYMj4WOOtdu3a+l6Jt3jxYsvnxoXMhL4Xkov33nvP49+PzwyfXWL5E8ji+ERhJ+Pf79mzp9pmhYEsUcS4bPttclPbA7e5n+h63OJusz3YZpptH4NZCoGTJ0+qkzfjPti3b1+91XdnzpxRPY3ozTA+l/GGE1BURUYPYqQ5dOiQCjqdrzVv3rx6i+/Qk23895pvOFlIigATQbfx76ASM7mMGzdO9dQ535+KFSvajh07pre64ETuhRdecHsv27Zt61MvFOzcudPtsVa3pUuX6nu7wzGBgMzqMcG6bd68Wf+16GV1Eu68FShQwHb69Gl9T+/wmVo9Hjf0hiOrhBywX6Knzvgede3a1TLoOX78uK1SpUq37offgokTJ+qtvjl79qwtbdq0bn/PeUPF7UCsXbvW9uCDD1o+N264yOjL/hPtcGHB+O8uUqSI+v0OhD+BLLIojH8fN1xg8IaBLFGEOL2kp63QbSlst+Wqbusx7hvbyi07bDt/22j7ee6HtgEtStuypTYEuCnutFUf/YeNsSyFQr169dx+VHBC7SuksCLlLL4A1nzDfYsXL26rX7++7c8//9TPFH7vv/++2+v098QfJwPGlDrjDemLgVzx9gY9hQi6nX8H76svvYexBiexpUqVuvU+4WQZ00wgyP3ggw9UAJstW7Zb27GMbAV/xRck4ebtOTHlk9X9g3UrV66c/kvRbcOGDZb/PqT079+/X98rfkjxz5Ahg8dz4Hvs33//1fciI6RaG1N+MT0LjhkcOziGmjRp4haA4vMwpn37w3xhDjd8XrhQ5I/p06er4BRpw/fcc4/Hc1rd0qVLp75D8d2AYTdIV09uJk+efOvfW7p0advRo0f1lsTzJ5A1T492++23x3uBNw7/sd+RiMLp6kYZXL6SjIrrId/+OFyqZzbXYbsu++f3kgatPpCt/zkO2ZQ5O8qCXZOlzu2qSZRkVqxYoYppOGEC9OPHj6vpKxKCog32Exbd8h8qwZqrKIYLivPYT/hv/XtQnMSXAj9GGzduFHvQqiZ2t/+oq8qzKO6E4iVJYdGiRW7T7CxdulRq1qypW2S2ZMkSVYEV1WpRkMkIlZ7tJ3by3HPPScuWLcV+gqW3+A6nXKhIjYJnKBqGSt0nTpxQ01kAPi+roib/+9//1P2TSrFixdT0M8kBilihKM3evXtVQbOmTZuq4k7+fF6oiturVy9V3RjFb+xBi6raiiliyNrVq1flq6++Uvv3L7/84jZtC2BqIxT069ixozz55JOJrviMKtIoNjV+/Hh1TOC3CQXUypYtq+/hmw0bNgRUgR7y58/v99+NdJjKCwWd8BmhsndivufMChUqJLt27VLLqD7s7T0bPHiwqkZtnJ7v2WefVcUPvWEgSxQB/vu+ixRutVt6rlgsLxVJo9eaXZVtQ6tIhcHr5RKO2pR55IUfdsmEGrc5NhMlIQRwODlxwg8LfmBiDQJRTD2Bk6m77rpL9u3bl6jqv6hQixO5xJ7M+QpTZTjnwkSlYkyzQr5BVWBcsMEFDFy0eeCBB5Lk88LUIZgGJlWqVHL48GHJnj273kKBuHLlirroFshnhue47Tb+xvoL34+oKIyqz7hgh2l1cuXKpbcGB8IXfI/iM6bgQfVnVOXGXMv4TgoGXwPZnj17qgvX+M4F7Duo5F+4cGHVtpK0v6BE5IMrsmb+EknberB08RrEQhop2rmzPJYhztG8eVz274vtMvEUOn369NFLDnPmzNFLsQVzbOLHFjAFz/vvv6+W/YUThKQOYtG76Axi77nnHr/neox1OPFGDywu4mC+yqT6vLZs2aL+X6tWLQaxQYQANNDPjEFs4uB9d/ZW4jsz2EEsIMhhEBt8CCTbtm0btCDWH8gYcgaxgIuv8QWxwECWKNxuHJMj16tL/96VJb1e5U2KzGXk4YecXy5MpqDQadKkiducspgP9cKFC7oVW959991bc96OHDkySVM+Ewtpfj169FDLOCFBuhh6RSjyTJgwQf3fPF8xEVEs+e677/SSw6uvvqqXvGMgSxRuKfPIs5M+lvZ5U+oV8YhLL7en08sp7pW8+ZwNoqSVMmVK6d27t26JXL58WY3ni0XoBUCPNAJ7pM45A8ZI8vbbb99K5Ro7dqwad0SR55NPPlHjXxs2bKguFhERxSJcfJ07d65uiRr7XKFCBd3yjoEsUTS5cUyO/ePoiU2R5RGpWoppTxQ6KNKRO3du3RJV1CNWIf0KgXymTJlk6tSpqphMpMDn8uabb6rlbt26SdeuXdUyRZZly5ZJ9+7d1TGFgJaIKFZhiMWZM2fUMtLGhw0bppYTwkDWDsUccEX02LFjeg2RC8bBIY1y//79ek343Dy2UTbtx/iBlJK7YWt54k7HeqJQQPXCyZMn65aowkHbtm3TrdiDsTuobpomTRo1hhhjUsNt5cqVKkUVhVD69+8fUQE2uSDVGxW5UTAMxxEquhIRxSIUB1u7dq1uOS6aV6xYUbfiFzNVixHlo4w6qhDi/7ht3bpVfv31V1UxENatW6eqUVLsQZl48/6B6TGwfxw4cEDdB1XcUG0tfG7K/vGPS+GeP8mlDFVlxIYfpU9BH9KRiYIMPzLOHiSkRCKYi2Xff/+9NGvWTFU4RW/o008/rbeEFlKJH330UfV99sEHH6jPiSILqqwOGjRIhg8frgrhYNodFOIiIkquEqpajCnt5s+fr5bvvvtu2blzp0/T+0FMBLL/93//l+CA4TvuuENOnTqlxoFRbPn444/VHHHxQbEU7B9hnUPu+mZ5vVx5eWtLGik96CdZOaScpNWbiELp/PnzUrJkSTVPIyBFslq1amo5VuHCF36gcWEU3ymo+hhKmOu3cePGcu3aNTV+l3PFRiZc7MBJHeY2HTJkiKRNy29xIkre4gtkL126JBMnTlQXYJFSjAwV49znCYmJ1GKMEcKkx5j/D9UmEbSaoRAGg9jY1KpVKzXf2ebNm2XMmDGW0x9gCobwToR+U45Me0s+2HpD7qwyWD5+jUEshQ+OhSlTptwqz9+lSxcV3MayYsWKyfr161WAj9Te1157TaVLhcKnn34qjz/+uOTJk0dlFjGIjVyYzuWPP/5QPbIMYoko1iErBUEs4HfTnyAWYiKQxUnXgw8+qIKRfv36Wb5JmDSeYlP69OnVRPc4AcX8kC1atNBbXMK9f9w88a0MfP1bOZOnpXzwZV8pwRpPFGaPPPKIGueHCr640orJ02NkpIpXSBFdvXq1Sh3FtDwIMJMaAlcUcxo8eLBaLliwoN5CkQpjqomIYh0u/uLCHhQpUkTeeustteyPmCz2ZHWyVaNGDb1EsS7i9o+bh2X2S71kyqUa8u68SdLiPtZoo8jQqFEjlcaKE3OkAyGAi3XocUPFYKQahyK9GHUd8LcGDBgQlgnsiYiI/IX6M6gvAaVKlVJDY5Ba7K+YPCPesGGDXnJAtcASJUroFsU68/6Bk3Rfq6cF32XZNqatdP/+Phk4d6b0LpFeryeKDPXq1VNFGtKlS6fK5aNnkEQKFCgQksASP/z58+fXLSIiosiG+hpffvml3LhxQ6pUqaKKRiZ2eGfMBbL79u2TPXv26JYDJt1NkYK9XOSobo2x1Ebo8UD6cejdkAOzukjTd85Jh5nzZOCjmfR6osiCaURwAQgFHVDN+PLly3oLERERkQtmjcFFWGR1BVrTIeaiN6t5/jg+lpxQfRVXiIzCs3/clOOL+0rDHlul9mfzZViNu2IzfYKiRtGiRdVFoLlz57KIDREREVlC8Nq5c+egZMPG3Lnx0qVL9ZJLYsc/Llq0SHWJU/IRzP0DRV9QYvzq1at6ja9uyumVb0ij9j/IwxMXyOi6OeI/UC+clbPusTdRWCBzgXNxExERkTeYPSZr1qy6FZiYCmRRxOfHH3/ULQdMtYJKWf5Ctziq22JOOEo+zD32GPdXoUIF3fId8v8bNGggJ0+e9LtC5YWNo6RZyxly/4hv5cNGuSXeUQM39sik9l1k6qHQTPNBRERERBQJYiqQxTyhCCyMEpM2evz4calfv75cuHBBzd1HyQMqqGG+YaNHH31UVSH1x9mzZ9UUT9jX/N0/ruz4SNo0nSgZ35gvnz6TT+ItFXPlgHzbr6W8Y6srTXMz8ZiIiIiIYkdMnf0GY3zs/v37VW43gh5gIJt8BGP/wEWOWrVqyc6dO1Xbn/3j+t6p0qF+T1lwyib7P24nVStUUL3BlrfypaXAfQWkwdijUrNtQ8nGOJaIiIiIYkhMnf4GOv4RVTkx/uv3339X7dtvv10eeeQRtUzRL9D9A/sF9g/n9D2ohO3r428emS/d6z0v0/ZclZvn9smm9evVRNFebxs2ye4TlyXlg82l/eMZ9LMQEREREcWGmAlkMR3EqlWrdMshV65c8tBDD+lW/GbPni3VqlVTPW5OmLbH3/GPFJmsxk9nyJBBFWvyxQ8//KDmmkWPvVPp0qXVHMUJuv6bjGzxrEzecUlsepVP4tJIqdbtpBx3QSIiIiKKMckqkL148aKqFPu///1Pli9f7laICUGseW5DX9JGMc6xQ4cO0qxZM7l06ZJe68C04uiCz3/t2rXy3XffyU8//ST//fef3uIo3vXPP//olkPlypUlVap4R6nK+fPnpVevXlKnTh01NtYIKcY+SVVU+q84KzfswTQCap9vN6/IhoFF4h9HSyGH/Qy95tevX9drrOH7as2aNWp/PHjwoF7rG1TCXrFihSxevNhj3D8RERFRLIj6QBbB5VdffSUNGzaUbNmySaVKlaRu3bqq9/Suu+6SGTNmqPtZpY3GF2js2LFDBgwYIAULFpRPP/1UBQ5m27dvlyFDhrjdUACKIse1a9fk66+/lubNm6v9A8WbEHRinDP2jw8//FDdz9/9Y8+ePfLmm29KoUKFZOzYsR5zzwLuY94/Tpw4obdScoDvn19++UU+/vhj6dKli+qFR1n5p59+2utFEDzmvffek7x586pefOyPWH7hhRcsv2eMjh07pu6XI0cOlRHy5JNPqsySt99+W9+DiIiIKDbE2U+c/MpmjCTffPONvPjii7Jv3z41HhHT4SBgKVasmDrhw8ni/Pnz5a+//pJGjRrJpk2b9CPt//C4OJUmjODGbMyYMep5/X1rkGaMXr6UKeOdMIVCBMFpjx495I8//lBtXOxo3bq1lCpVSk6dOiUTJkyQzz//XLZs2SL9+/dX6cFGeFyBAgV0ywUXTtq3b59gj5uV06dPS6ZMmXSLog0+8xEjRqgefNxQ5drqIsZzzz2n9i2zhQsXyvPPP6++n6yMGzdOunfvrlvupkyZoraZe/6dZs6cqTJHiIiIiCIFOn127dqlltHZ6G3Y3uDBg/WS76IykEUaXqdOnVRaHaD39f3335cSJUqottPNmzdVr0XhwoVVjwnaTngTnUV5zKZNm+Y2DQtOHEePHq1bDuhJMacWZ86cWXr27KlbFC7o9ezWrZsa1wz4rHFxwqowF+Z6RWA5a9Yst9Rx9JBhLlgruICCIMYJvb7Dhg3TLQcEy3huI0zj88orr+gWRSOkDTt7Tv/991+VFmwVyOI7pGXLlrrlgHUIcBEMp06dWj3O+J0EZcqUUT28Zthvhg8frpaxH1nNX43vup9//lm3iIiIiMIvKQNZnJBFFftJni1HjhwIvtWtdevWNnsgobd6mjBhgs1+0njr/s7boEGD9D0SNnfuXI/Hz5gxQ2+lSLJz506bPQi99Tk99dRTtv/++09v9TRz5kzL/aNr1676HglbsWKFx+PHjx+vt1JytnLlSo/PPkWKFLZ//vlH38Pho48+Uutz5sxpmzJlis0exKrvslSpUrk9NleuXPoRDvag19auXTu1rWDBgrZ58+ap9XPmzHF7HG74XiQiIiKKJDh/iYuLUzeclw8ZMsTylhhRNUZ2wYIFqtfBmZbXpEkT+fLLL+MtyJMnTx7VY2aGsWW+MlezRVqyP9OyUGigNwpjYP/++2/Vxmc0d+5cSZcunWpbSYr9AzAGl5I/jLM2e/jhhyVr1qy65Riq0LlzZ2ncuLG6IvnMM8+ooRDofTWnmd9zzz16yQE9sZ999pl6LLIAkB4PuKJpduedd+olIiIiouQvagJZFG1CARVnpVnM14mxiggq42M1jhFTouDxvjIHKsWLF7ccW0vhg/GttWvXVmNQAWkMCGKRwhkfq/0DqZv+XKgw7x8ovoMiYZT8WaUBYz90WrJkibz00kuq8jm+wzD3tNOhQ4dUerIRhiw4IRV55MiRakwtCpYZp/oyprY7FS1aVC8RERERJX9REchi6py2bdveGk+GQAM9sWnTplXt+FhVEUY1WvSI+OLIkSO3igU5PfbYY3qJIsG2bdukadOmakoSwGeLQju+9FBZ7R+YdscYcMQHU6hgqhUj9sbGjo0bN+olF2cgi0C1VatWakwtxuibv3MwVZiZc99BYbqOHTuqHtlJkyZ5PNZqLCz3OyIiIoolER/IougS0umMxU0wLU7+/Pl1K37Gok1OTBtNPnChAWmW586d02tEFXoqV66cbsUv0P0Dc3maU5O5f8QO80UMTL2DomLYJ1BB2FlozIo5kMUQCQydQLEyfOfh8e+8847e6m7ZsmV6yYXzWhMREVEsiehAFhVC69ev7zbhf5EiRfyq/GruTUUqsjH1LyHmQBbpfVWqVNEtCidUfcW0Suj5csqdO7dfc2qa9w8I9EIHe+xjw5kzZ+TXX3/VLQekpCMg7devn5riafr06V6zP9asWaOXHBD0ZsyYUU0RhbGzEydO1FvcIR3eHATff//98uCDD+oWERERUfIX0YHskCFDPAKNjz76KMFxj0bmx6MQy913361bCTMHKhUqVPA57ZSSFqZcMveIjR8/XjJkyKBbCTPvHyj+hPG1vjLvH5jqyVywh5InzFNsnnoHF8nmzJmjUtsxh7W39HYEwZs3b9YtB1wAQWGndevWqamj0qdPr7e4Q/B8/vx53XJgbywRERHFmogNZFHMBIVOjHCyZiyGkhCkm+7YsUO3HPzpbdu9e7dbbx8wbTQyoDKxeb4pXKRAD76v0LNl7lHzZ/9AoR5z0R3uH7EDBcbMSpcuLV26dFHpxAUKFNBrPf30008ec8giJblPnz4ybty4eIdOWKUVY9w/ERERUSyJyEDWZrOpQifmirK9evXSS775/vvvPcYvMm00eejateutCtZOPXv21Eu+WblypeoZM/Jn/0BAgX3ViPtH7DAHsgg+R48eraaAeu655/Raa6hmbITUYPTGYthCQo81F3pC6jKnAyMiIqJYE5GB7KJFizyqgWL8V506dXTLNwsXLtRLDoFOu4Pxa74WEaKkg9RLXKQwyp49u7Ro0UK3fGPePzD+2Z8eVfP+kTJlSqlWrZpuUXKG+WD379+vWw64aIZ9ytvYViOkJRth7D7myR41apReY81qfCx6gfHdRkRERBRLIjKQtTqZ6969e4JzxhrhpPJ///ufbjkg/Q7Bhi+Q9mdO4UNFURRyofCy2j86deqkpmXyFXpSETgYoTfMn/HP5kAWxXpQtZaSP6u0YqS7Dx06VHLmzKnXWNu3b5/89ddfuuWAx/bo0UPy5cun11jDvLXmKaM4PpaIiIhiUcQFslu2bPEIIBF8Yh5Zf8ycOVONYTTyJ20UrwNVR42YNhp+6AWbO3eubrkgFd0f6NE1BxP+7B8HDhzweDz3j9hhzggAFPnCnLEJMacVw1133SUDBw7ULe+s5o9lIEtERESxKOICWUz+b1aqVCmv1T+9QUVbI/TmPvHEE7qVMI6PjUyffPKJR6VYjC9EtWF/mPcP4Php8sXVq1ctA0pcbPMlY8OcVgzPPvusT99x5r+LDAKMySUiIiKKNREXyFpV5PR33lYU8TFXo0VFW4yj9JU5UMmRI4eaw5bCKxj7BypZm3vUEAwHMu0OpkpB1VlK/jBG9eLFi7rlgAtlvmQFYMiC1UWQdu3a6SXvMFzCPD4W+z7GdhMRERHFmogKZP/55x+PeT2hcuXKeilhGPvYv39/3XLxp1AUelwQDBtxWpXwu3LlihojaObP/gH9+vXTSy7+9MYCpk8xwmtgQBEbrMbHVq9ePcHxrYC5Y0+ePKlbDrjIVqxYMd3yDvu+OYBmWjERERHFqogKZFetWqWX3PkTqCD1FFVtzfxJK8bjzVO7MG00/DZs2KCCWTN/9o9vvvnGowgY+LN/7Ny5U44ePapbDtw/YodVIOvrGG2rtGJfemOB42OJiIiIXCIqkDUXzwH0cqEQii/Qo/vKK69I2rRp9RoHVLNFRVlfWaX+WfXImue5paRltX/Avffeq5fih2qvvXv39tg/oFKlSnopYdw/Ytfx48dVr6oRvp8aNWqkW/EzF3rCd1OrVq10K37mtHrs90WLFtUtB6Qum+c2JiIiIkqOIiqQNfeCQoYMGfRS/DB+rEmTJvLUU095TMOCYlGpU6fWLQcENYMHD7YMNsy9Jvnz55fcuXPrlsOYMWOkW7duukWhYLV/gC9T5uDkvnXr1lK8eHFVXdYIcxSb5+FEejn2j0uXLuk1LuZgJGvWrFKyZEndcpg6dao0b95ctyi5wNhqc6D4zDPP+DT10+XLlz3GuOL7ypc5YPH9tmbNGt1ysMoCePXVV9VUVERERETJXUQFsuZgExBIoJchIZj24uDBg2ouxrNnz+q1DuXKldNLDghemzVrpsbjmquMYsqetWvX6paD+YRxxYoV8vbbb8vrr7+u11AoWO0f4C3ANRowYID6XIcPH67m7DQy7x8IVJDuicDBHKAgtdkcyNaoUcNtjmNM3dSrVy9555139BpKLhYvXqyXXHABzRcYd49g1qhu3bp6KX4bN2702M+x3xnNmDFDRowYIY0bN9ZriIiIiJKviApkc+XKpZdcEMguX75ctzwhKO3Zs6fMmjVLvv32W9m1a5fe4lK+fHm95AhSunbtKnv27JHJkyfrtS7ojTX3uBjTRvfu3at62iZOnOhzSisFh9X+Ad99951e8oTPEhccMN0OxsfiYoeZcf8ApKdjn5syZYqkSOF+iCAYMffSGvePY8eOqTRTXOhATz4lH7igZtUb7+v0N1bzx/o6ttpcfA6qVauml0Q2bdokHTp0UIXu/BnvTURERBStIiqQrVevnmWv26BBgzx6MuDEiRNSu3Zt+eCDD1Qgi+lxrKoeFyxYUP0fz4EgdNGiRSpF0GreRquTTee0Kvv371e9IOitY69H6CFgtPrM3nrrLTl37pxuuaBnHkEltn/xxRfqc4xv/8BFEaRl4gIH9g9MuWQW3/6BMdp4jSjAw/TO5AdTeiFjwwg9qilTptSt+PkyZMEbc0oyxuU6505GhgiC1/r16zMLgIiIiGJGRAWymTNntqzCiZM4TG+BHjUEIjhxQ+8DTuQwDQoCWefjzNNTAHrYpk2bpoJQBCIIUjBvqBWk8Jl9/PHHMnv2bNUDgmB56NCheguFEtJ8GzRooFsu27dvV5WLZ86cqfYPpARj/DJ6cLHPoHe0adOm6r5W+8cbb7wh06dPV0EJemHRs+9tzmCr/ePzzz9Xj6latapkypRJxo0bp7dQcmJVcdhqf7SCABgp50b+VLpGJogRxvgvXLhQ3nvvPfU8qAPw5ZdfuqW4ExERESVncTZzHm2Y7d69WwUl6G1NyB133CEfffSRtGjRQq9xzBE6cuRI3XKHwHfu3Llq3kZvEIiYx9g64XUhYLHqFaTQOHz4sFSsWFH1jickXbp0Mnr0aOncubNeI2qMLC5sWLn77rvl66+/lipVqug1nlAYCmnpVhBMIM0Zz0PJDwJGY8VqVL9GgOpLsTFcZDF+TwG+i55++mndih/2LXMg7IQxuriY4svrICIiIgqlQoUK3Rr6iU4jbzPJoMiqvyKqRxaQboeCKtmyZdNrrKFAD6bBMJ8ceptXsVatWio1ML4gFp588km95K5NmzaqR4ZBbHjlzJlT9aonlJKJaUkw76wxiAVvvWBID8b+EV8QC3Xq1NFL7pDWiXGMDGKTJxT5MlcNRhq5r8GjOSUd6cjIMvGVVc9v+vTpZcKECWpYBYNYIiIiijUR1yPrhBNH9Fh89dVXqkDPjRs3VG8pApGGDRvGG5CicidS7jAmFr2oKAblLcA1w7QrGFOJcbR4DWXKlFFpzAkFOBRaGM+K3nH0RKEKMaYnQQ89ggPsHyjg5C3NctKkSeozRs877odK15gGxVzYyQr2Q/T4I3hA0ScEzNg/sH8xrTP5wvcCskWMcLHN1wsX2EeNae2oBVCgQAHdShj293fffVcNq8iYMaO64IaeWOzzRERERJEqKXtkIzaQJSIiIiIiougVU6nFRERERERERPFhIEtERERERERRhYEsERERERERRRUGskRERERERBRVGMgSERERERFRVGEgS0RERERERFGFgSwRERERERFFFQayREREREREFFUYyBIREREREVFUYSBLREREREREUYWBLBEREREREUUVBrJEREREREQUVRjIEhERERERUVRhIEtERERERERRhYEsERERERERRRUGskRERERERBRVGMgSERERERFRVGEgS0RERERERFGFgSwRERERERFFFQayREREREREFFUYyBIREREREVFUYSBLREREREREUYWBLBEREREREUUVBrJEREREREQUVRjIEhERERERUVRhIEtERERERERRhYEsERERERERRRUGskRERERERBRVGMgSERERERFRVGEgS0RERERERFFE5P8BhhSSgq+flTMAAAAASUVORK5CYII=;" vertex="1" parent="11">
                    <mxGeometry x="25" y="58.139999999999986" width="220" height="81.86" as="geometry"/>
                </mxCell>
                <mxCell id="12" style="edgeStyle=none;html=1;entryX=0;entryY=0.5;entryDx=0;entryDy=0;sketch=1;curveFitting=1;jiggle=2;" edge="1" parent="1" source="2" target="4">
                    <mxGeometry relative="1" as="geometry"/>
                </mxCell>
                <mxCell id="13" value="" style="edgeStyle=none;html=1;sketch=1;curveFitting=1;jiggle=2;" edge="1" parent="1" source="4" target="6">
                    <mxGeometry relative="1" as="geometry"/>
                </mxCell>
                <mxCell id="14" value="Reales System" style="text;html=1;align=center;verticalAlign=middle;resizable=0;points=[];autosize=1;strokeColor=none;fillColor=none;fontFamily=Tahoma;fontSize=26;" vertex="1" parent="1">
                    <mxGeometry x="90" y="175" width="190" height="40" as="geometry"/>
                </mxCell>
                <mxCell id="15" value="(physikalische) Gesetze" style="text;html=1;align=center;verticalAlign=middle;resizable=0;points=[];autosize=1;strokeColor=none;fillColor=none;fontFamily=Tahoma;fontSize=26;" vertex="1" parent="1">
                    <mxGeometry x="350" y="170" width="290" height="40" as="geometry"/>
                </mxCell>
                <mxCell id="16" value="Modellgleichungen" style="text;html=1;align=center;verticalAlign=middle;resizable=0;points=[];autosize=1;strokeColor=none;fillColor=none;fontFamily=Tahoma;fontSize=26;" vertex="1" parent="1">
                    <mxGeometry x="685" y="170" width="240" height="40" as="geometry"/>
                </mxCell>
            </root>
        </mxGraphModel>
    </diagram>
</mxfile>